%TF.GenerationSoftware,KiCad,Pcbnew,10.0.3*%
%TF.CreationDate,2026-06-09T21:51:00+05:30*%
%TF.ProjectId,LiIon_3V3_500mA_Regulator,4c69496f-6e5f-4335-9633-5f3530306d41,REv 1.0*%
%TF.SameCoordinates,Original*%
%TF.FileFunction,Copper,L2,Bot*%
%TF.FilePolarity,Positive*%
%FSLAX46Y46*%
G04 Gerber Fmt 4.6, Leading zero omitted, Abs format (unit mm)*
G04 Created by KiCad (PCBNEW 10.0.3) date 2026-06-09 21:51:00*
%MOMM*%
%LPD*%
G01*
G04 APERTURE LIST*
%TA.AperFunction,ComponentPad*%
%ADD10R,1.308000X1.308000*%
%TD*%
%TA.AperFunction,ComponentPad*%
%ADD11C,1.308000*%
%TD*%
%TA.AperFunction,ComponentPad*%
%ADD12C,1.500000*%
%TD*%
%TA.AperFunction,ComponentPad*%
%ADD13R,1.575000X1.575000*%
%TD*%
%TA.AperFunction,ComponentPad*%
%ADD14C,1.575000*%
%TD*%
%TA.AperFunction,ViaPad*%
%ADD15C,0.800000*%
%TD*%
%TA.AperFunction,ViaPad*%
%ADD16C,2.000000*%
%TD*%
%TA.AperFunction,Conductor*%
%ADD17C,0.250000*%
%TD*%
G04 APERTURE END LIST*
D10*
%TO.P,J1,1,Pin_1_1*%
%TO.N,Net-(J1-Pin_1)*%
X137713600Y-96529200D03*
D11*
%TO.P,J1,2,Pin_2_2*%
%TO.N,GND*%
X137713600Y-98529200D03*
%TD*%
D12*
%TO.P,TP1,1,1_1*%
%TO.N,Net-(Q1-S)*%
X147783200Y-91381600D03*
%TD*%
%TO.P,TP2,1,1_1*%
%TO.N,Net-(J2-Pin_1)*%
X161346800Y-91635600D03*
%TD*%
D13*
%TO.P,J2,1,Pin_1_1*%
%TO.N,Net-(J2-Pin_1)*%
X163023200Y-97325200D03*
D14*
%TO.P,J2,2,Pin_2_2*%
%TO.N,GND*%
X163023200Y-94785200D03*
%TD*%
D12*
%TO.P,TP3,1,1_1*%
%TO.N,GND*%
X154768000Y-91569600D03*
%TD*%
D15*
%TO.N,GND*%
X144518000Y-92519600D03*
X146518000Y-92519600D03*
X145518000Y-92519600D03*
%TO.N,*%
X162347200Y-104437200D03*
D16*
X168347200Y-104437200D03*
D15*
X144462800Y-88028800D03*
X165347200Y-104437200D03*
X165462800Y-88028800D03*
X165379200Y-91483200D03*
X159347200Y-104437200D03*
X162839200Y-99408000D03*
D16*
X168462800Y-88028800D03*
D15*
X141347200Y-104437200D03*
X135594400Y-101440000D03*
X162839200Y-100474800D03*
X163839200Y-100474800D03*
%TO.N,GND*%
X145518000Y-93519600D03*
%TO.N,*%
X154768000Y-99169600D03*
X153768000Y-99169600D03*
X164839200Y-99408000D03*
%TO.N,GND*%
X146518000Y-93519600D03*
%TO.N,*%
X151768000Y-99169600D03*
X163379200Y-91483200D03*
X162462800Y-88028800D03*
X159462800Y-88028800D03*
X136645200Y-102456000D03*
X150368000Y-104369600D03*
X138347200Y-104437200D03*
X137645200Y-102456000D03*
X161839200Y-99408000D03*
X156347200Y-104437200D03*
X164379200Y-91483200D03*
X153462800Y-88028800D03*
X139645200Y-102456000D03*
X150462800Y-88028800D03*
D16*
X132462800Y-88028800D03*
D15*
X135645200Y-102456000D03*
X163430000Y-92550000D03*
X138594400Y-101440000D03*
X153347200Y-104437200D03*
X135462800Y-88028800D03*
X164839200Y-100474800D03*
X164430000Y-92550000D03*
X147347200Y-104437200D03*
X147462800Y-88028800D03*
X138462800Y-88028800D03*
X161839200Y-100474800D03*
X138645200Y-102456000D03*
X144347200Y-104437200D03*
X156462800Y-88028800D03*
X136594400Y-101440000D03*
X137594400Y-101440000D03*
X163839200Y-99408000D03*
X135347200Y-104437200D03*
X165430000Y-92550000D03*
D16*
X132784400Y-104361000D03*
D15*
X141462800Y-88028800D03*
X139594400Y-101440000D03*
%TO.N,GND*%
X144518000Y-93519600D03*
%TO.N,*%
X155768000Y-99169600D03*
%TO.N,Net-(J2-Pin_1)*%
X161348000Y-97325200D03*
%TO.N,Net-(Q1-S)*%
X152768000Y-94669600D03*
X152768000Y-99169600D03*
%TO.N,GND*%
X150768000Y-100169600D03*
X151768000Y-100169600D03*
X154768000Y-100169600D03*
X158758000Y-102709600D03*
X155768000Y-100169600D03*
X150768000Y-99169600D03*
X152768000Y-100169600D03*
X153768000Y-100169600D03*
%TD*%
%TO.N,Net-(J2-Pin_1)*%
D17*
X161346800Y-97324000D02*
X161348000Y-97325200D01*
X161346800Y-91635600D02*
X161346800Y-97324000D01*
%TO.N,Net-(Q1-S)*%
X152768000Y-94669600D02*
X152768000Y-99109600D01*
X152768000Y-99109600D02*
X152788000Y-99129600D01*
%TO.N,GND*%
X158758000Y-102709600D02*
X158758000Y-102809599D01*
%TD*%
%TA.AperFunction,Conductor*%
%TO.N,GND*%
G36*
X169104853Y-86500881D02*
G01*
X169277919Y-86514502D01*
X169297128Y-86517545D01*
X169461183Y-86556931D01*
X169479675Y-86562939D01*
X169591447Y-86609237D01*
X169635541Y-86627502D01*
X169652877Y-86636335D01*
X169796729Y-86724486D01*
X169812466Y-86735919D01*
X169915995Y-86824342D01*
X169940753Y-86845488D01*
X169954511Y-86859246D01*
X170064078Y-86987531D01*
X170075513Y-87003270D01*
X170163664Y-87147122D01*
X170172497Y-87164458D01*
X170237057Y-87320317D01*
X170243070Y-87338823D01*
X170282453Y-87502866D01*
X170285497Y-87522084D01*
X170299118Y-87695146D01*
X170299500Y-87704875D01*
X170299500Y-104695124D01*
X170299118Y-104704853D01*
X170285497Y-104877915D01*
X170282453Y-104897133D01*
X170243070Y-105061176D01*
X170237057Y-105079682D01*
X170172497Y-105235541D01*
X170163664Y-105252877D01*
X170075513Y-105396729D01*
X170064075Y-105412472D01*
X169954511Y-105540753D01*
X169940753Y-105554511D01*
X169812472Y-105664075D01*
X169796729Y-105675513D01*
X169652877Y-105763664D01*
X169635541Y-105772497D01*
X169479682Y-105837057D01*
X169461176Y-105843070D01*
X169297133Y-105882453D01*
X169277915Y-105885497D01*
X169104854Y-105899118D01*
X169095125Y-105899500D01*
X132104875Y-105899500D01*
X132095146Y-105899118D01*
X131922084Y-105885497D01*
X131902866Y-105882453D01*
X131738823Y-105843070D01*
X131720317Y-105837057D01*
X131564458Y-105772497D01*
X131547122Y-105763664D01*
X131403270Y-105675513D01*
X131387531Y-105664078D01*
X131259246Y-105554511D01*
X131245488Y-105540753D01*
X131179899Y-105463959D01*
X131135919Y-105412466D01*
X131124486Y-105396729D01*
X131036335Y-105252877D01*
X131027502Y-105235541D01*
X130989201Y-105143075D01*
X130962939Y-105079675D01*
X130956931Y-105061183D01*
X130917545Y-104897128D01*
X130914502Y-104877915D01*
X130912314Y-104850118D01*
X130900882Y-104704853D01*
X130900500Y-104695124D01*
X130900500Y-104266513D01*
X131583900Y-104266513D01*
X131583900Y-104455486D01*
X131613459Y-104642118D01*
X131671854Y-104821836D01*
X131747399Y-104970100D01*
X131757640Y-104990199D01*
X131868710Y-105143073D01*
X132002327Y-105276690D01*
X132155201Y-105387760D01*
X132234747Y-105428290D01*
X132323563Y-105473545D01*
X132323565Y-105473545D01*
X132323568Y-105473547D01*
X132398977Y-105498049D01*
X132503281Y-105531940D01*
X132689914Y-105561500D01*
X132689919Y-105561500D01*
X132878886Y-105561500D01*
X133065518Y-105531940D01*
X133245232Y-105473547D01*
X133413599Y-105387760D01*
X133566473Y-105276690D01*
X133700090Y-105143073D01*
X133811160Y-104990199D01*
X133896947Y-104821832D01*
X133955340Y-104642118D01*
X133961792Y-104601383D01*
X133984900Y-104455486D01*
X133984900Y-104358143D01*
X134746700Y-104358143D01*
X134746700Y-104516257D01*
X134780425Y-104642118D01*
X134787623Y-104668983D01*
X134787626Y-104668990D01*
X134866675Y-104805909D01*
X134866679Y-104805914D01*
X134866680Y-104805916D01*
X134978484Y-104917720D01*
X134978486Y-104917721D01*
X134978490Y-104917724D01*
X135104022Y-104990199D01*
X135115416Y-104996777D01*
X135268143Y-105037700D01*
X135268145Y-105037700D01*
X135426255Y-105037700D01*
X135426257Y-105037700D01*
X135578984Y-104996777D01*
X135715916Y-104917720D01*
X135827720Y-104805916D01*
X135906777Y-104668984D01*
X135947700Y-104516257D01*
X135947700Y-104358143D01*
X137746700Y-104358143D01*
X137746700Y-104516257D01*
X137780425Y-104642118D01*
X137787623Y-104668983D01*
X137787626Y-104668990D01*
X137866675Y-104805909D01*
X137866679Y-104805914D01*
X137866680Y-104805916D01*
X137978484Y-104917720D01*
X137978486Y-104917721D01*
X137978490Y-104917724D01*
X138104022Y-104990199D01*
X138115416Y-104996777D01*
X138268143Y-105037700D01*
X138268145Y-105037700D01*
X138426255Y-105037700D01*
X138426257Y-105037700D01*
X138578984Y-104996777D01*
X138715916Y-104917720D01*
X138827720Y-104805916D01*
X138906777Y-104668984D01*
X138947700Y-104516257D01*
X138947700Y-104358143D01*
X140746700Y-104358143D01*
X140746700Y-104516257D01*
X140780425Y-104642118D01*
X140787623Y-104668983D01*
X140787626Y-104668990D01*
X140866675Y-104805909D01*
X140866679Y-104805914D01*
X140866680Y-104805916D01*
X140978484Y-104917720D01*
X140978486Y-104917721D01*
X140978490Y-104917724D01*
X141104022Y-104990199D01*
X141115416Y-104996777D01*
X141268143Y-105037700D01*
X141268145Y-105037700D01*
X141426255Y-105037700D01*
X141426257Y-105037700D01*
X141578984Y-104996777D01*
X141715916Y-104917720D01*
X141827720Y-104805916D01*
X141906777Y-104668984D01*
X141947700Y-104516257D01*
X141947700Y-104358143D01*
X143746700Y-104358143D01*
X143746700Y-104516257D01*
X143780425Y-104642118D01*
X143787623Y-104668983D01*
X143787626Y-104668990D01*
X143866675Y-104805909D01*
X143866679Y-104805914D01*
X143866680Y-104805916D01*
X143978484Y-104917720D01*
X143978486Y-104917721D01*
X143978490Y-104917724D01*
X144104022Y-104990199D01*
X144115416Y-104996777D01*
X144268143Y-105037700D01*
X144268145Y-105037700D01*
X144426255Y-105037700D01*
X144426257Y-105037700D01*
X144578984Y-104996777D01*
X144715916Y-104917720D01*
X144827720Y-104805916D01*
X144906777Y-104668984D01*
X144947700Y-104516257D01*
X144947700Y-104358143D01*
X146746700Y-104358143D01*
X146746700Y-104516257D01*
X146780425Y-104642118D01*
X146787623Y-104668983D01*
X146787626Y-104668990D01*
X146866675Y-104805909D01*
X146866679Y-104805914D01*
X146866680Y-104805916D01*
X146978484Y-104917720D01*
X146978486Y-104917721D01*
X146978490Y-104917724D01*
X147104022Y-104990199D01*
X147115416Y-104996777D01*
X147268143Y-105037700D01*
X147268145Y-105037700D01*
X147426255Y-105037700D01*
X147426257Y-105037700D01*
X147578984Y-104996777D01*
X147715916Y-104917720D01*
X147827720Y-104805916D01*
X147906777Y-104668984D01*
X147947700Y-104516257D01*
X147947700Y-104358143D01*
X147929587Y-104290543D01*
X149767500Y-104290543D01*
X149767500Y-104448657D01*
X149785614Y-104516257D01*
X149808423Y-104601383D01*
X149808426Y-104601390D01*
X149887475Y-104738309D01*
X149887479Y-104738314D01*
X149887480Y-104738316D01*
X149999284Y-104850120D01*
X149999286Y-104850121D01*
X149999290Y-104850124D01*
X150136209Y-104929173D01*
X150136216Y-104929177D01*
X150288943Y-104970100D01*
X150288945Y-104970100D01*
X150447055Y-104970100D01*
X150447057Y-104970100D01*
X150599784Y-104929177D01*
X150736716Y-104850120D01*
X150848520Y-104738316D01*
X150927577Y-104601384D01*
X150968500Y-104448657D01*
X150968500Y-104358143D01*
X152746700Y-104358143D01*
X152746700Y-104516257D01*
X152780425Y-104642118D01*
X152787623Y-104668983D01*
X152787626Y-104668990D01*
X152866675Y-104805909D01*
X152866679Y-104805914D01*
X152866680Y-104805916D01*
X152978484Y-104917720D01*
X152978486Y-104917721D01*
X152978490Y-104917724D01*
X153104022Y-104990199D01*
X153115416Y-104996777D01*
X153268143Y-105037700D01*
X153268145Y-105037700D01*
X153426255Y-105037700D01*
X153426257Y-105037700D01*
X153578984Y-104996777D01*
X153715916Y-104917720D01*
X153827720Y-104805916D01*
X153906777Y-104668984D01*
X153947700Y-104516257D01*
X153947700Y-104358143D01*
X155746700Y-104358143D01*
X155746700Y-104516257D01*
X155780425Y-104642118D01*
X155787623Y-104668983D01*
X155787626Y-104668990D01*
X155866675Y-104805909D01*
X155866679Y-104805914D01*
X155866680Y-104805916D01*
X155978484Y-104917720D01*
X155978486Y-104917721D01*
X155978490Y-104917724D01*
X156104022Y-104990199D01*
X156115416Y-104996777D01*
X156268143Y-105037700D01*
X156268145Y-105037700D01*
X156426255Y-105037700D01*
X156426257Y-105037700D01*
X156578984Y-104996777D01*
X156715916Y-104917720D01*
X156827720Y-104805916D01*
X156906777Y-104668984D01*
X156947700Y-104516257D01*
X156947700Y-104358143D01*
X158746700Y-104358143D01*
X158746700Y-104516257D01*
X158780425Y-104642118D01*
X158787623Y-104668983D01*
X158787626Y-104668990D01*
X158866675Y-104805909D01*
X158866679Y-104805914D01*
X158866680Y-104805916D01*
X158978484Y-104917720D01*
X158978486Y-104917721D01*
X158978490Y-104917724D01*
X159104022Y-104990199D01*
X159115416Y-104996777D01*
X159268143Y-105037700D01*
X159268145Y-105037700D01*
X159426255Y-105037700D01*
X159426257Y-105037700D01*
X159578984Y-104996777D01*
X159715916Y-104917720D01*
X159827720Y-104805916D01*
X159906777Y-104668984D01*
X159947700Y-104516257D01*
X159947700Y-104358143D01*
X161746700Y-104358143D01*
X161746700Y-104516257D01*
X161780425Y-104642118D01*
X161787623Y-104668983D01*
X161787626Y-104668990D01*
X161866675Y-104805909D01*
X161866679Y-104805914D01*
X161866680Y-104805916D01*
X161978484Y-104917720D01*
X161978486Y-104917721D01*
X161978490Y-104917724D01*
X162104022Y-104990199D01*
X162115416Y-104996777D01*
X162268143Y-105037700D01*
X162268145Y-105037700D01*
X162426255Y-105037700D01*
X162426257Y-105037700D01*
X162578984Y-104996777D01*
X162715916Y-104917720D01*
X162827720Y-104805916D01*
X162906777Y-104668984D01*
X162947700Y-104516257D01*
X162947700Y-104358143D01*
X164746700Y-104358143D01*
X164746700Y-104516257D01*
X164780425Y-104642118D01*
X164787623Y-104668983D01*
X164787626Y-104668990D01*
X164866675Y-104805909D01*
X164866679Y-104805914D01*
X164866680Y-104805916D01*
X164978484Y-104917720D01*
X164978486Y-104917721D01*
X164978490Y-104917724D01*
X165104022Y-104990199D01*
X165115416Y-104996777D01*
X165268143Y-105037700D01*
X165268145Y-105037700D01*
X165426255Y-105037700D01*
X165426257Y-105037700D01*
X165578984Y-104996777D01*
X165715916Y-104917720D01*
X165827720Y-104805916D01*
X165906777Y-104668984D01*
X165947700Y-104516257D01*
X165947700Y-104358143D01*
X165943566Y-104342713D01*
X167146700Y-104342713D01*
X167146700Y-104531686D01*
X167176259Y-104718318D01*
X167234654Y-104898036D01*
X167305817Y-105037700D01*
X167320440Y-105066399D01*
X167431510Y-105219273D01*
X167565127Y-105352890D01*
X167718001Y-105463960D01*
X167736813Y-105473545D01*
X167886363Y-105549745D01*
X167886365Y-105549745D01*
X167886368Y-105549747D01*
X167922540Y-105561500D01*
X168066081Y-105608140D01*
X168252714Y-105637700D01*
X168252719Y-105637700D01*
X168441686Y-105637700D01*
X168628318Y-105608140D01*
X168808032Y-105549747D01*
X168976399Y-105463960D01*
X169129273Y-105352890D01*
X169262890Y-105219273D01*
X169373960Y-105066399D01*
X169459747Y-104898032D01*
X169518140Y-104718318D01*
X169525954Y-104668983D01*
X169547700Y-104531686D01*
X169547700Y-104342713D01*
X169518140Y-104156081D01*
X169489677Y-104068482D01*
X169459747Y-103976368D01*
X169459745Y-103976365D01*
X169459745Y-103976363D01*
X169388583Y-103836700D01*
X169373960Y-103808001D01*
X169262890Y-103655127D01*
X169129273Y-103521510D01*
X168976399Y-103410440D01*
X168808036Y-103324654D01*
X168628318Y-103266259D01*
X168441686Y-103236700D01*
X168441681Y-103236700D01*
X168252719Y-103236700D01*
X168252714Y-103236700D01*
X168066081Y-103266259D01*
X167886363Y-103324654D01*
X167718000Y-103410440D01*
X167670004Y-103445312D01*
X167565127Y-103521510D01*
X167565125Y-103521512D01*
X167565124Y-103521512D01*
X167431512Y-103655124D01*
X167431512Y-103655125D01*
X167431510Y-103655127D01*
X167383810Y-103720779D01*
X167320440Y-103808000D01*
X167234654Y-103976363D01*
X167176259Y-104156081D01*
X167146700Y-104342713D01*
X165943566Y-104342713D01*
X165906777Y-104205416D01*
X165878294Y-104156081D01*
X165827724Y-104068490D01*
X165827718Y-104068482D01*
X165715917Y-103956681D01*
X165715909Y-103956675D01*
X165578990Y-103877626D01*
X165578986Y-103877624D01*
X165578984Y-103877623D01*
X165426257Y-103836700D01*
X165268143Y-103836700D01*
X165115416Y-103877623D01*
X165115409Y-103877626D01*
X164978490Y-103956675D01*
X164978482Y-103956681D01*
X164866681Y-104068482D01*
X164866675Y-104068490D01*
X164787626Y-104205409D01*
X164787624Y-104205414D01*
X164787623Y-104205416D01*
X164746700Y-104358143D01*
X162947700Y-104358143D01*
X162906777Y-104205416D01*
X162878294Y-104156081D01*
X162827724Y-104068490D01*
X162827718Y-104068482D01*
X162715917Y-103956681D01*
X162715909Y-103956675D01*
X162578990Y-103877626D01*
X162578986Y-103877624D01*
X162578984Y-103877623D01*
X162426257Y-103836700D01*
X162268143Y-103836700D01*
X162115416Y-103877623D01*
X162115409Y-103877626D01*
X161978490Y-103956675D01*
X161978482Y-103956681D01*
X161866681Y-104068482D01*
X161866675Y-104068490D01*
X161787626Y-104205409D01*
X161787624Y-104205414D01*
X161787623Y-104205416D01*
X161746700Y-104358143D01*
X159947700Y-104358143D01*
X159906777Y-104205416D01*
X159878294Y-104156081D01*
X159827724Y-104068490D01*
X159827718Y-104068482D01*
X159715917Y-103956681D01*
X159715909Y-103956675D01*
X159578990Y-103877626D01*
X159578986Y-103877624D01*
X159578984Y-103877623D01*
X159426257Y-103836700D01*
X159268143Y-103836700D01*
X159115416Y-103877623D01*
X159115409Y-103877626D01*
X158978490Y-103956675D01*
X158978482Y-103956681D01*
X158866681Y-104068482D01*
X158866675Y-104068490D01*
X158787626Y-104205409D01*
X158787624Y-104205414D01*
X158787623Y-104205416D01*
X158746700Y-104358143D01*
X156947700Y-104358143D01*
X156906777Y-104205416D01*
X156878294Y-104156081D01*
X156827724Y-104068490D01*
X156827718Y-104068482D01*
X156715917Y-103956681D01*
X156715909Y-103956675D01*
X156578990Y-103877626D01*
X156578986Y-103877624D01*
X156578984Y-103877623D01*
X156426257Y-103836700D01*
X156268143Y-103836700D01*
X156115416Y-103877623D01*
X156115409Y-103877626D01*
X155978490Y-103956675D01*
X155978482Y-103956681D01*
X155866681Y-104068482D01*
X155866675Y-104068490D01*
X155787626Y-104205409D01*
X155787624Y-104205414D01*
X155787623Y-104205416D01*
X155746700Y-104358143D01*
X153947700Y-104358143D01*
X153906777Y-104205416D01*
X153878294Y-104156081D01*
X153827724Y-104068490D01*
X153827718Y-104068482D01*
X153715917Y-103956681D01*
X153715909Y-103956675D01*
X153578990Y-103877626D01*
X153578986Y-103877624D01*
X153578984Y-103877623D01*
X153426257Y-103836700D01*
X153268143Y-103836700D01*
X153115416Y-103877623D01*
X153115409Y-103877626D01*
X152978490Y-103956675D01*
X152978482Y-103956681D01*
X152866681Y-104068482D01*
X152866675Y-104068490D01*
X152787626Y-104205409D01*
X152787624Y-104205414D01*
X152787623Y-104205416D01*
X152746700Y-104358143D01*
X150968500Y-104358143D01*
X150968500Y-104290543D01*
X150927577Y-104137816D01*
X150887549Y-104068484D01*
X150848524Y-104000890D01*
X150848518Y-104000882D01*
X150736717Y-103889081D01*
X150736709Y-103889075D01*
X150599790Y-103810026D01*
X150599786Y-103810024D01*
X150599784Y-103810023D01*
X150447057Y-103769100D01*
X150288943Y-103769100D01*
X150136216Y-103810023D01*
X150136209Y-103810026D01*
X149999290Y-103889075D01*
X149999282Y-103889081D01*
X149887481Y-104000882D01*
X149887475Y-104000890D01*
X149808426Y-104137809D01*
X149808423Y-104137816D01*
X149767500Y-104290543D01*
X147929587Y-104290543D01*
X147906777Y-104205416D01*
X147878294Y-104156081D01*
X147827724Y-104068490D01*
X147827718Y-104068482D01*
X147715917Y-103956681D01*
X147715909Y-103956675D01*
X147578990Y-103877626D01*
X147578986Y-103877624D01*
X147578984Y-103877623D01*
X147426257Y-103836700D01*
X147268143Y-103836700D01*
X147115416Y-103877623D01*
X147115409Y-103877626D01*
X146978490Y-103956675D01*
X146978482Y-103956681D01*
X146866681Y-104068482D01*
X146866675Y-104068490D01*
X146787626Y-104205409D01*
X146787624Y-104205414D01*
X146787623Y-104205416D01*
X146746700Y-104358143D01*
X144947700Y-104358143D01*
X144906777Y-104205416D01*
X144878294Y-104156081D01*
X144827724Y-104068490D01*
X144827718Y-104068482D01*
X144715917Y-103956681D01*
X144715909Y-103956675D01*
X144578990Y-103877626D01*
X144578986Y-103877624D01*
X144578984Y-103877623D01*
X144426257Y-103836700D01*
X144268143Y-103836700D01*
X144115416Y-103877623D01*
X144115409Y-103877626D01*
X143978490Y-103956675D01*
X143978482Y-103956681D01*
X143866681Y-104068482D01*
X143866675Y-104068490D01*
X143787626Y-104205409D01*
X143787624Y-104205414D01*
X143787623Y-104205416D01*
X143746700Y-104358143D01*
X141947700Y-104358143D01*
X141906777Y-104205416D01*
X141878294Y-104156081D01*
X141827724Y-104068490D01*
X141827718Y-104068482D01*
X141715917Y-103956681D01*
X141715909Y-103956675D01*
X141578990Y-103877626D01*
X141578986Y-103877624D01*
X141578984Y-103877623D01*
X141426257Y-103836700D01*
X141268143Y-103836700D01*
X141115416Y-103877623D01*
X141115409Y-103877626D01*
X140978490Y-103956675D01*
X140978482Y-103956681D01*
X140866681Y-104068482D01*
X140866675Y-104068490D01*
X140787626Y-104205409D01*
X140787624Y-104205414D01*
X140787623Y-104205416D01*
X140746700Y-104358143D01*
X138947700Y-104358143D01*
X138906777Y-104205416D01*
X138878294Y-104156081D01*
X138827724Y-104068490D01*
X138827718Y-104068482D01*
X138715917Y-103956681D01*
X138715909Y-103956675D01*
X138578990Y-103877626D01*
X138578986Y-103877624D01*
X138578984Y-103877623D01*
X138426257Y-103836700D01*
X138268143Y-103836700D01*
X138115416Y-103877623D01*
X138115409Y-103877626D01*
X137978490Y-103956675D01*
X137978482Y-103956681D01*
X137866681Y-104068482D01*
X137866675Y-104068490D01*
X137787626Y-104205409D01*
X137787624Y-104205414D01*
X137787623Y-104205416D01*
X137746700Y-104358143D01*
X135947700Y-104358143D01*
X135906777Y-104205416D01*
X135878294Y-104156081D01*
X135827724Y-104068490D01*
X135827718Y-104068482D01*
X135715917Y-103956681D01*
X135715909Y-103956675D01*
X135578990Y-103877626D01*
X135578986Y-103877624D01*
X135578984Y-103877623D01*
X135426257Y-103836700D01*
X135268143Y-103836700D01*
X135115416Y-103877623D01*
X135115409Y-103877626D01*
X134978490Y-103956675D01*
X134978482Y-103956681D01*
X134866681Y-104068482D01*
X134866675Y-104068490D01*
X134787626Y-104205409D01*
X134787624Y-104205414D01*
X134787623Y-104205416D01*
X134746700Y-104358143D01*
X133984900Y-104358143D01*
X133984900Y-104266513D01*
X133955340Y-104079881D01*
X133896945Y-103900163D01*
X133851690Y-103811347D01*
X133811160Y-103731801D01*
X133700090Y-103578927D01*
X133566473Y-103445310D01*
X133413599Y-103334240D01*
X133245236Y-103248454D01*
X133065518Y-103190059D01*
X132878886Y-103160500D01*
X132878881Y-103160500D01*
X132689919Y-103160500D01*
X132689914Y-103160500D01*
X132503281Y-103190059D01*
X132323563Y-103248454D01*
X132155200Y-103334240D01*
X132067979Y-103397610D01*
X132002327Y-103445310D01*
X132002325Y-103445312D01*
X132002324Y-103445312D01*
X131868712Y-103578924D01*
X131868712Y-103578925D01*
X131868710Y-103578927D01*
X131821010Y-103644579D01*
X131757640Y-103731800D01*
X131671854Y-103900163D01*
X131613459Y-104079881D01*
X131583900Y-104266513D01*
X130900500Y-104266513D01*
X130900500Y-101360943D01*
X134993900Y-101360943D01*
X134993900Y-101519056D01*
X135034823Y-101671783D01*
X135034826Y-101671790D01*
X135113875Y-101808709D01*
X135113881Y-101808717D01*
X135190882Y-101885718D01*
X135224367Y-101947041D01*
X135219383Y-102016733D01*
X135190885Y-102061077D01*
X135164682Y-102087281D01*
X135164675Y-102087290D01*
X135085626Y-102224209D01*
X135085623Y-102224216D01*
X135044700Y-102376943D01*
X135044700Y-102535056D01*
X135085623Y-102687783D01*
X135085626Y-102687790D01*
X135164675Y-102824709D01*
X135164679Y-102824714D01*
X135164680Y-102824716D01*
X135276484Y-102936520D01*
X135276486Y-102936521D01*
X135276490Y-102936524D01*
X135413409Y-103015573D01*
X135413416Y-103015577D01*
X135566143Y-103056500D01*
X135566145Y-103056500D01*
X135724255Y-103056500D01*
X135724257Y-103056500D01*
X135876984Y-103015577D01*
X136013916Y-102936520D01*
X136057519Y-102892917D01*
X136118842Y-102859432D01*
X136188534Y-102864416D01*
X136232881Y-102892917D01*
X136276484Y-102936520D01*
X136276486Y-102936521D01*
X136276490Y-102936524D01*
X136413409Y-103015573D01*
X136413416Y-103015577D01*
X136566143Y-103056500D01*
X136566145Y-103056500D01*
X136724255Y-103056500D01*
X136724257Y-103056500D01*
X136876984Y-103015577D01*
X137013916Y-102936520D01*
X137057519Y-102892917D01*
X137118842Y-102859432D01*
X137188534Y-102864416D01*
X137232881Y-102892917D01*
X137276484Y-102936520D01*
X137276486Y-102936521D01*
X137276490Y-102936524D01*
X137413409Y-103015573D01*
X137413416Y-103015577D01*
X137566143Y-103056500D01*
X137566145Y-103056500D01*
X137724255Y-103056500D01*
X137724257Y-103056500D01*
X137876984Y-103015577D01*
X138013916Y-102936520D01*
X138057519Y-102892917D01*
X138118842Y-102859432D01*
X138188534Y-102864416D01*
X138232881Y-102892917D01*
X138276484Y-102936520D01*
X138276486Y-102936521D01*
X138276490Y-102936524D01*
X138413409Y-103015573D01*
X138413416Y-103015577D01*
X138566143Y-103056500D01*
X138566145Y-103056500D01*
X138724255Y-103056500D01*
X138724257Y-103056500D01*
X138876984Y-103015577D01*
X139013916Y-102936520D01*
X139057519Y-102892917D01*
X139118842Y-102859432D01*
X139188534Y-102864416D01*
X139232881Y-102892917D01*
X139276484Y-102936520D01*
X139276486Y-102936521D01*
X139276490Y-102936524D01*
X139413409Y-103015573D01*
X139413416Y-103015577D01*
X139566143Y-103056500D01*
X139566145Y-103056500D01*
X139724255Y-103056500D01*
X139724257Y-103056500D01*
X139876984Y-103015577D01*
X140013916Y-102936520D01*
X140125720Y-102824716D01*
X140204777Y-102687784D01*
X140245700Y-102535057D01*
X140245700Y-102376943D01*
X140204777Y-102224216D01*
X140145200Y-102121024D01*
X140125724Y-102087290D01*
X140125718Y-102087282D01*
X140048717Y-102010281D01*
X140015232Y-101948958D01*
X140020216Y-101879266D01*
X140048717Y-101834919D01*
X140074920Y-101808716D01*
X140153977Y-101671784D01*
X140194900Y-101519057D01*
X140194900Y-101360943D01*
X140153977Y-101208216D01*
X140077239Y-101075300D01*
X140074924Y-101071290D01*
X140074918Y-101071282D01*
X139963117Y-100959481D01*
X139963109Y-100959475D01*
X139826190Y-100880426D01*
X139826186Y-100880424D01*
X139826184Y-100880423D01*
X139673457Y-100839500D01*
X139515343Y-100839500D01*
X139362616Y-100880423D01*
X139362609Y-100880426D01*
X139225690Y-100959475D01*
X139225682Y-100959481D01*
X139182081Y-101003083D01*
X139120758Y-101036568D01*
X139051066Y-101031584D01*
X139006719Y-101003083D01*
X138963117Y-100959481D01*
X138963109Y-100959475D01*
X138826190Y-100880426D01*
X138826186Y-100880424D01*
X138826184Y-100880423D01*
X138673457Y-100839500D01*
X138515343Y-100839500D01*
X138362616Y-100880423D01*
X138362609Y-100880426D01*
X138225690Y-100959475D01*
X138225682Y-100959481D01*
X138182081Y-101003083D01*
X138120758Y-101036568D01*
X138051066Y-101031584D01*
X138006719Y-101003083D01*
X137963117Y-100959481D01*
X137963109Y-100959475D01*
X137826190Y-100880426D01*
X137826186Y-100880424D01*
X137826184Y-100880423D01*
X137673457Y-100839500D01*
X137515343Y-100839500D01*
X137362616Y-100880423D01*
X137362609Y-100880426D01*
X137225690Y-100959475D01*
X137225682Y-100959481D01*
X137182081Y-101003083D01*
X137120758Y-101036568D01*
X137051066Y-101031584D01*
X137006719Y-101003083D01*
X136963117Y-100959481D01*
X136963109Y-100959475D01*
X136826190Y-100880426D01*
X136826186Y-100880424D01*
X136826184Y-100880423D01*
X136673457Y-100839500D01*
X136515343Y-100839500D01*
X136362616Y-100880423D01*
X136362609Y-100880426D01*
X136225690Y-100959475D01*
X136225682Y-100959481D01*
X136182081Y-101003083D01*
X136120758Y-101036568D01*
X136051066Y-101031584D01*
X136006719Y-101003083D01*
X135963117Y-100959481D01*
X135963109Y-100959475D01*
X135826190Y-100880426D01*
X135826186Y-100880424D01*
X135826184Y-100880423D01*
X135673457Y-100839500D01*
X135515343Y-100839500D01*
X135362616Y-100880423D01*
X135362609Y-100880426D01*
X135225690Y-100959475D01*
X135225682Y-100959481D01*
X135113881Y-101071282D01*
X135113875Y-101071290D01*
X135034826Y-101208209D01*
X135034823Y-101208216D01*
X134993900Y-101360943D01*
X130900500Y-101360943D01*
X130900500Y-98438378D01*
X136559600Y-98438378D01*
X136559600Y-98620021D01*
X136588015Y-98799425D01*
X136644148Y-98972184D01*
X136726612Y-99134030D01*
X136726614Y-99134034D01*
X136738648Y-99150595D01*
X136738649Y-99150596D01*
X137313600Y-98575645D01*
X137313600Y-98581861D01*
X137340859Y-98683594D01*
X137393520Y-98774806D01*
X137467994Y-98849280D01*
X137559206Y-98901941D01*
X137660939Y-98929200D01*
X137667154Y-98929200D01*
X137092202Y-99504149D01*
X137092203Y-99504150D01*
X137108765Y-99516185D01*
X137108779Y-99516193D01*
X137270612Y-99598650D01*
X137443374Y-99654784D01*
X137622779Y-99683200D01*
X137804421Y-99683200D01*
X137983825Y-99654784D01*
X138156584Y-99598651D01*
X138318431Y-99516186D01*
X138334996Y-99504149D01*
X137760047Y-98929200D01*
X137766261Y-98929200D01*
X137867994Y-98901941D01*
X137959206Y-98849280D01*
X138033680Y-98774806D01*
X138086341Y-98683594D01*
X138113600Y-98581861D01*
X138113600Y-98575646D01*
X138688549Y-99150595D01*
X138700586Y-99134031D01*
X138722745Y-99090543D01*
X151167500Y-99090543D01*
X151167500Y-99248656D01*
X151208423Y-99401383D01*
X151208426Y-99401390D01*
X151287475Y-99538309D01*
X151287479Y-99538314D01*
X151287480Y-99538316D01*
X151399284Y-99650120D01*
X151399286Y-99650121D01*
X151399290Y-99650124D01*
X151536209Y-99729173D01*
X151536216Y-99729177D01*
X151688943Y-99770100D01*
X151688945Y-99770100D01*
X151847055Y-99770100D01*
X151847057Y-99770100D01*
X151999784Y-99729177D01*
X152136716Y-99650120D01*
X152180319Y-99606517D01*
X152241642Y-99573032D01*
X152311334Y-99578016D01*
X152355681Y-99606517D01*
X152399284Y-99650120D01*
X152399286Y-99650121D01*
X152399290Y-99650124D01*
X152536209Y-99729173D01*
X152536216Y-99729177D01*
X152688943Y-99770100D01*
X152688945Y-99770100D01*
X152847055Y-99770100D01*
X152847057Y-99770100D01*
X152999784Y-99729177D01*
X153136716Y-99650120D01*
X153180319Y-99606517D01*
X153241642Y-99573032D01*
X153311334Y-99578016D01*
X153355681Y-99606517D01*
X153399284Y-99650120D01*
X153399286Y-99650121D01*
X153399290Y-99650124D01*
X153536209Y-99729173D01*
X153536216Y-99729177D01*
X153688943Y-99770100D01*
X153688945Y-99770100D01*
X153847055Y-99770100D01*
X153847057Y-99770100D01*
X153999784Y-99729177D01*
X154136716Y-99650120D01*
X154180319Y-99606517D01*
X154241642Y-99573032D01*
X154311334Y-99578016D01*
X154355681Y-99606517D01*
X154399284Y-99650120D01*
X154399286Y-99650121D01*
X154399290Y-99650124D01*
X154536209Y-99729173D01*
X154536216Y-99729177D01*
X154688943Y-99770100D01*
X154688945Y-99770100D01*
X154847055Y-99770100D01*
X154847057Y-99770100D01*
X154999784Y-99729177D01*
X155136716Y-99650120D01*
X155180319Y-99606517D01*
X155241642Y-99573032D01*
X155311334Y-99578016D01*
X155355681Y-99606517D01*
X155399284Y-99650120D01*
X155399286Y-99650121D01*
X155399290Y-99650124D01*
X155536209Y-99729173D01*
X155536216Y-99729177D01*
X155688943Y-99770100D01*
X155688945Y-99770100D01*
X155847055Y-99770100D01*
X155847057Y-99770100D01*
X155999784Y-99729177D01*
X156136716Y-99650120D01*
X156248520Y-99538316D01*
X156327577Y-99401384D01*
X156346987Y-99328943D01*
X161238700Y-99328943D01*
X161238700Y-99487057D01*
X161268602Y-99598651D01*
X161279623Y-99639783D01*
X161279626Y-99639790D01*
X161358675Y-99776709D01*
X161358681Y-99776717D01*
X161435683Y-99853719D01*
X161469168Y-99915042D01*
X161464184Y-99984734D01*
X161435683Y-100029081D01*
X161358681Y-100106082D01*
X161358675Y-100106090D01*
X161279626Y-100243009D01*
X161279623Y-100243016D01*
X161238700Y-100395743D01*
X161238700Y-100553856D01*
X161279623Y-100706583D01*
X161279626Y-100706590D01*
X161358675Y-100843509D01*
X161358679Y-100843514D01*
X161358680Y-100843516D01*
X161470484Y-100955320D01*
X161470486Y-100955321D01*
X161470490Y-100955324D01*
X161602578Y-101031584D01*
X161607416Y-101034377D01*
X161760143Y-101075300D01*
X161760145Y-101075300D01*
X161918255Y-101075300D01*
X161918257Y-101075300D01*
X162070984Y-101034377D01*
X162207916Y-100955320D01*
X162251519Y-100911717D01*
X162312842Y-100878232D01*
X162382534Y-100883216D01*
X162426881Y-100911717D01*
X162470484Y-100955320D01*
X162470486Y-100955321D01*
X162470490Y-100955324D01*
X162602578Y-101031584D01*
X162607416Y-101034377D01*
X162760143Y-101075300D01*
X162760145Y-101075300D01*
X162918255Y-101075300D01*
X162918257Y-101075300D01*
X163070984Y-101034377D01*
X163207916Y-100955320D01*
X163251519Y-100911717D01*
X163312842Y-100878232D01*
X163382534Y-100883216D01*
X163426881Y-100911717D01*
X163470484Y-100955320D01*
X163470486Y-100955321D01*
X163470490Y-100955324D01*
X163602578Y-101031584D01*
X163607416Y-101034377D01*
X163760143Y-101075300D01*
X163760145Y-101075300D01*
X163918255Y-101075300D01*
X163918257Y-101075300D01*
X164070984Y-101034377D01*
X164207916Y-100955320D01*
X164251519Y-100911717D01*
X164312842Y-100878232D01*
X164382534Y-100883216D01*
X164426881Y-100911717D01*
X164470484Y-100955320D01*
X164470486Y-100955321D01*
X164470490Y-100955324D01*
X164602578Y-101031584D01*
X164607416Y-101034377D01*
X164760143Y-101075300D01*
X164760145Y-101075300D01*
X164918255Y-101075300D01*
X164918257Y-101075300D01*
X165070984Y-101034377D01*
X165207916Y-100955320D01*
X165319720Y-100843516D01*
X165398777Y-100706584D01*
X165439700Y-100553857D01*
X165439700Y-100395743D01*
X165398777Y-100243016D01*
X165339200Y-100139824D01*
X165319724Y-100106090D01*
X165319718Y-100106082D01*
X165242717Y-100029081D01*
X165209232Y-99967758D01*
X165214216Y-99898066D01*
X165242717Y-99853719D01*
X165319720Y-99776716D01*
X165398777Y-99639784D01*
X165439700Y-99487057D01*
X165439700Y-99328943D01*
X165398777Y-99176216D01*
X165398773Y-99176209D01*
X165319724Y-99039290D01*
X165319718Y-99039282D01*
X165207917Y-98927481D01*
X165207909Y-98927475D01*
X165070990Y-98848426D01*
X165070986Y-98848424D01*
X165070984Y-98848423D01*
X164918257Y-98807500D01*
X164760143Y-98807500D01*
X164607416Y-98848423D01*
X164607409Y-98848426D01*
X164470490Y-98927475D01*
X164470482Y-98927481D01*
X164426881Y-98971083D01*
X164365558Y-99004568D01*
X164295866Y-98999584D01*
X164251519Y-98971083D01*
X164207917Y-98927481D01*
X164207909Y-98927475D01*
X164070990Y-98848426D01*
X164070986Y-98848424D01*
X164070984Y-98848423D01*
X163918257Y-98807500D01*
X163760143Y-98807500D01*
X163607416Y-98848423D01*
X163607409Y-98848426D01*
X163470490Y-98927475D01*
X163470482Y-98927481D01*
X163426881Y-98971083D01*
X163365558Y-99004568D01*
X163295866Y-98999584D01*
X163251519Y-98971083D01*
X163207917Y-98927481D01*
X163207909Y-98927475D01*
X163070990Y-98848426D01*
X163070986Y-98848424D01*
X163070984Y-98848423D01*
X162918257Y-98807500D01*
X162760143Y-98807500D01*
X162607416Y-98848423D01*
X162607409Y-98848426D01*
X162470490Y-98927475D01*
X162470482Y-98927481D01*
X162426881Y-98971083D01*
X162365558Y-99004568D01*
X162295866Y-98999584D01*
X162251519Y-98971083D01*
X162207917Y-98927481D01*
X162207909Y-98927475D01*
X162070990Y-98848426D01*
X162070986Y-98848424D01*
X162070984Y-98848423D01*
X161918257Y-98807500D01*
X161760143Y-98807500D01*
X161607416Y-98848423D01*
X161607409Y-98848426D01*
X161470490Y-98927475D01*
X161470482Y-98927481D01*
X161358681Y-99039282D01*
X161358675Y-99039290D01*
X161279626Y-99176209D01*
X161279623Y-99176216D01*
X161238700Y-99328943D01*
X156346987Y-99328943D01*
X156368500Y-99248657D01*
X156368500Y-99090543D01*
X156327577Y-98937816D01*
X156295787Y-98882754D01*
X156248524Y-98800890D01*
X156248518Y-98800882D01*
X156136717Y-98689081D01*
X156136709Y-98689075D01*
X155999790Y-98610026D01*
X155999786Y-98610024D01*
X155999784Y-98610023D01*
X155847057Y-98569100D01*
X155688943Y-98569100D01*
X155536216Y-98610023D01*
X155536209Y-98610026D01*
X155399290Y-98689075D01*
X155399282Y-98689081D01*
X155355681Y-98732683D01*
X155294358Y-98766168D01*
X155224666Y-98761184D01*
X155180319Y-98732683D01*
X155136717Y-98689081D01*
X155136709Y-98689075D01*
X154999790Y-98610026D01*
X154999786Y-98610024D01*
X154999784Y-98610023D01*
X154847057Y-98569100D01*
X154688943Y-98569100D01*
X154536216Y-98610023D01*
X154536209Y-98610026D01*
X154399290Y-98689075D01*
X154399282Y-98689081D01*
X154355681Y-98732683D01*
X154294358Y-98766168D01*
X154224666Y-98761184D01*
X154180319Y-98732683D01*
X154136717Y-98689081D01*
X154136709Y-98689075D01*
X153999790Y-98610026D01*
X153999786Y-98610024D01*
X153999784Y-98610023D01*
X153847057Y-98569100D01*
X153688943Y-98569100D01*
X153536216Y-98610023D01*
X153536209Y-98610026D01*
X153399290Y-98689075D01*
X153399282Y-98689081D01*
X153355681Y-98732683D01*
X153347880Y-98736942D01*
X153342573Y-98744072D01*
X153317688Y-98753428D01*
X153294358Y-98766168D01*
X153285493Y-98765534D01*
X153277174Y-98768662D01*
X153251185Y-98763080D01*
X153224666Y-98761184D01*
X153215749Y-98755470D01*
X153208862Y-98753991D01*
X153181107Y-98733271D01*
X153180551Y-98732915D01*
X153136716Y-98689080D01*
X153136160Y-98688759D01*
X153130051Y-98682682D01*
X153116895Y-98658740D01*
X153100798Y-98636680D01*
X153098953Y-98626088D01*
X153096404Y-98621448D01*
X153096897Y-98614280D01*
X153093500Y-98594769D01*
X153093500Y-95244430D01*
X153113185Y-95177391D01*
X153132022Y-95156920D01*
X153130969Y-95155867D01*
X153179279Y-95107557D01*
X153248520Y-95038316D01*
X153327577Y-94901384D01*
X153368500Y-94748657D01*
X153368500Y-94590543D01*
X153327577Y-94437816D01*
X153324015Y-94431646D01*
X153248524Y-94300890D01*
X153248518Y-94300882D01*
X153136717Y-94189081D01*
X153136709Y-94189075D01*
X152999790Y-94110026D01*
X152999786Y-94110024D01*
X152999784Y-94110023D01*
X152847057Y-94069100D01*
X152688943Y-94069100D01*
X152536216Y-94110023D01*
X152536209Y-94110026D01*
X152399290Y-94189075D01*
X152399282Y-94189081D01*
X152287481Y-94300882D01*
X152287475Y-94300890D01*
X152208426Y-94437809D01*
X152208423Y-94437816D01*
X152167500Y-94590543D01*
X152167500Y-94748657D01*
X152177292Y-94785199D01*
X152208423Y-94901383D01*
X152208426Y-94901390D01*
X152287475Y-95038309D01*
X152287481Y-95038317D01*
X152405031Y-95155867D01*
X152402785Y-95158112D01*
X152435179Y-95202455D01*
X152442500Y-95244430D01*
X152442500Y-98594769D01*
X152433810Y-98624362D01*
X152427174Y-98654484D01*
X152423816Y-98658395D01*
X152422815Y-98661808D01*
X152405949Y-98682682D01*
X152399839Y-98688759D01*
X152399284Y-98689080D01*
X152355449Y-98732915D01*
X152324737Y-98749579D01*
X152294358Y-98766168D01*
X152294188Y-98766155D01*
X152294037Y-98766238D01*
X152259400Y-98763668D01*
X152224666Y-98761184D01*
X152224502Y-98761078D01*
X152224359Y-98761068D01*
X152223620Y-98760511D01*
X152180319Y-98732683D01*
X152136717Y-98689081D01*
X152136709Y-98689075D01*
X151999790Y-98610026D01*
X151999786Y-98610024D01*
X151999784Y-98610023D01*
X151847057Y-98569100D01*
X151688943Y-98569100D01*
X151536216Y-98610023D01*
X151536209Y-98610026D01*
X151399290Y-98689075D01*
X151399282Y-98689081D01*
X151287481Y-98800882D01*
X151287475Y-98800890D01*
X151208426Y-98937809D01*
X151208423Y-98937816D01*
X151167500Y-99090543D01*
X138722745Y-99090543D01*
X138755570Y-99026121D01*
X138783051Y-98972184D01*
X138839184Y-98799425D01*
X138867600Y-98620021D01*
X138867600Y-98438378D01*
X138839184Y-98258974D01*
X138783050Y-98086212D01*
X138700593Y-97924379D01*
X138700585Y-97924365D01*
X138688550Y-97907803D01*
X138688549Y-97907802D01*
X138113600Y-98482752D01*
X138113600Y-98476539D01*
X138086341Y-98374806D01*
X138033680Y-98283594D01*
X137959206Y-98209120D01*
X137867994Y-98156459D01*
X137766261Y-98129200D01*
X137760047Y-98129200D01*
X138334995Y-97554249D01*
X138331233Y-97506429D01*
X138345598Y-97438052D01*
X138394650Y-97388296D01*
X138430660Y-97375084D01*
X138445831Y-97372067D01*
X138512152Y-97327752D01*
X138556467Y-97261431D01*
X138556467Y-97261429D01*
X138556468Y-97261429D01*
X138568099Y-97202952D01*
X138568100Y-97202950D01*
X138568100Y-95855449D01*
X138568099Y-95855447D01*
X138556468Y-95796970D01*
X138556467Y-95796969D01*
X138512152Y-95730647D01*
X138445830Y-95686332D01*
X138445829Y-95686331D01*
X138387352Y-95674700D01*
X138387348Y-95674700D01*
X137039852Y-95674700D01*
X137039847Y-95674700D01*
X136981370Y-95686331D01*
X136981369Y-95686332D01*
X136915047Y-95730647D01*
X136870732Y-95796969D01*
X136870731Y-95796970D01*
X136859100Y-95855447D01*
X136859100Y-97202952D01*
X136870731Y-97261429D01*
X136870732Y-97261430D01*
X136915047Y-97327752D01*
X136959362Y-97357362D01*
X136981369Y-97372067D01*
X136996538Y-97375084D01*
X137058449Y-97407469D01*
X137093024Y-97468184D01*
X137095966Y-97506430D01*
X137092202Y-97554249D01*
X137667154Y-98129200D01*
X137660939Y-98129200D01*
X137559206Y-98156459D01*
X137467994Y-98209120D01*
X137393520Y-98283594D01*
X137340859Y-98374806D01*
X137313600Y-98476539D01*
X137313600Y-98482753D01*
X136738649Y-97907802D01*
X136738648Y-97907803D01*
X136726618Y-97924361D01*
X136726612Y-97924370D01*
X136644148Y-98086215D01*
X136588015Y-98258974D01*
X136559600Y-98438378D01*
X130900500Y-98438378D01*
X130900500Y-92613277D01*
X154077873Y-92613277D01*
X154077873Y-92613278D01*
X154112858Y-92638696D01*
X154288164Y-92728018D01*
X154475294Y-92788821D01*
X154669618Y-92819600D01*
X154866382Y-92819600D01*
X155060705Y-92788821D01*
X155247835Y-92728018D01*
X155423143Y-92638695D01*
X155458125Y-92613278D01*
X155458126Y-92613278D01*
X154768001Y-91923153D01*
X154768000Y-91923153D01*
X154077873Y-92613277D01*
X130900500Y-92613277D01*
X130900500Y-91287979D01*
X146832700Y-91287979D01*
X146832700Y-91475220D01*
X146869225Y-91658843D01*
X146869227Y-91658851D01*
X146940876Y-91831828D01*
X146940881Y-91831837D01*
X147044897Y-91987507D01*
X147044900Y-91987511D01*
X147177288Y-92119899D01*
X147177292Y-92119902D01*
X147332962Y-92223918D01*
X147332971Y-92223923D01*
X147372156Y-92240154D01*
X147505949Y-92295573D01*
X147689579Y-92332099D01*
X147689583Y-92332100D01*
X147689584Y-92332100D01*
X147876817Y-92332100D01*
X147876818Y-92332099D01*
X148060451Y-92295573D01*
X148233431Y-92223922D01*
X148389108Y-92119902D01*
X148521502Y-91987508D01*
X148625522Y-91831831D01*
X148697173Y-91658851D01*
X148733700Y-91475216D01*
X148733700Y-91471217D01*
X153518000Y-91471217D01*
X153518000Y-91667982D01*
X153548778Y-91862305D01*
X153609581Y-92049435D01*
X153698905Y-92224745D01*
X153724319Y-92259725D01*
X153724320Y-92259725D01*
X154414446Y-91569600D01*
X154414446Y-91569599D01*
X154368369Y-91523522D01*
X154418000Y-91523522D01*
X154418000Y-91615678D01*
X154441852Y-91704695D01*
X154487930Y-91784505D01*
X154553095Y-91849670D01*
X154632905Y-91895748D01*
X154721922Y-91919600D01*
X154814078Y-91919600D01*
X154903095Y-91895748D01*
X154982905Y-91849670D01*
X155048070Y-91784505D01*
X155094148Y-91704695D01*
X155118000Y-91615678D01*
X155118000Y-91569599D01*
X155121553Y-91569599D01*
X155121553Y-91569601D01*
X155811678Y-92259726D01*
X155811678Y-92259725D01*
X155837095Y-92224743D01*
X155926418Y-92049435D01*
X155987221Y-91862305D01*
X156018000Y-91667982D01*
X156018000Y-91541979D01*
X160396300Y-91541979D01*
X160396300Y-91729220D01*
X160432825Y-91912843D01*
X160432827Y-91912851D01*
X160504476Y-92085828D01*
X160504481Y-92085837D01*
X160608497Y-92241507D01*
X160608500Y-92241511D01*
X160740888Y-92373899D01*
X160740892Y-92373902D01*
X160896562Y-92477918D01*
X160896566Y-92477920D01*
X160896569Y-92477922D01*
X160944754Y-92497880D01*
X160999155Y-92541720D01*
X161021221Y-92608014D01*
X161021300Y-92612441D01*
X161021300Y-96751302D01*
X161001615Y-96818341D01*
X160984981Y-96838983D01*
X160867481Y-96956482D01*
X160867475Y-96956490D01*
X160788426Y-97093409D01*
X160788423Y-97093416D01*
X160747500Y-97246143D01*
X160747500Y-97404257D01*
X160756556Y-97438052D01*
X160788423Y-97556983D01*
X160788426Y-97556990D01*
X160867475Y-97693909D01*
X160867479Y-97693914D01*
X160867480Y-97693916D01*
X160979284Y-97805720D01*
X160979286Y-97805721D01*
X160979290Y-97805724D01*
X161116209Y-97884773D01*
X161116216Y-97884777D01*
X161268943Y-97925700D01*
X161268945Y-97925700D01*
X161427055Y-97925700D01*
X161427057Y-97925700D01*
X161579784Y-97884777D01*
X161716716Y-97805720D01*
X161823519Y-97698917D01*
X161884842Y-97665432D01*
X161954534Y-97670416D01*
X162010467Y-97712288D01*
X162034884Y-97777752D01*
X162035200Y-97786598D01*
X162035200Y-98132452D01*
X162046831Y-98190929D01*
X162046832Y-98190930D01*
X162091147Y-98257252D01*
X162157469Y-98301567D01*
X162157470Y-98301568D01*
X162215947Y-98313199D01*
X162215950Y-98313200D01*
X162215952Y-98313200D01*
X163830450Y-98313200D01*
X163830451Y-98313199D01*
X163845268Y-98310252D01*
X163888929Y-98301568D01*
X163888929Y-98301567D01*
X163888931Y-98301567D01*
X163955252Y-98257252D01*
X163999567Y-98190931D01*
X163999567Y-98190929D01*
X163999568Y-98190929D01*
X164011199Y-98132452D01*
X164011200Y-98132450D01*
X164011200Y-96517949D01*
X164011199Y-96517947D01*
X163999568Y-96459470D01*
X163999567Y-96459469D01*
X163955252Y-96393147D01*
X163888930Y-96348832D01*
X163888929Y-96348831D01*
X163830452Y-96337200D01*
X163830448Y-96337200D01*
X162215952Y-96337200D01*
X162215947Y-96337200D01*
X162157470Y-96348831D01*
X162157469Y-96348832D01*
X162091147Y-96393147D01*
X162046832Y-96459469D01*
X162046831Y-96459470D01*
X162035200Y-96517947D01*
X162035200Y-96863802D01*
X162029002Y-96884909D01*
X162027485Y-96906859D01*
X162019350Y-96917779D01*
X162015515Y-96930841D01*
X161998891Y-96945244D01*
X161985747Y-96962892D01*
X161972998Y-96967681D01*
X161962711Y-96976596D01*
X161940938Y-96979726D01*
X161920341Y-96987465D01*
X161907029Y-96984602D01*
X161893553Y-96986540D01*
X161873539Y-96977400D01*
X161852032Y-96972775D01*
X161834115Y-96959395D01*
X161829997Y-96957515D01*
X161823728Y-96951692D01*
X161716716Y-96844680D01*
X161715499Y-96843977D01*
X161708828Y-96837338D01*
X161695692Y-96813417D01*
X161679602Y-96791372D01*
X161677751Y-96780746D01*
X161675197Y-96776095D01*
X161675692Y-96768925D01*
X161672300Y-96749448D01*
X161672300Y-95486369D01*
X161691985Y-95419330D01*
X161744789Y-95373575D01*
X161813947Y-95363631D01*
X161877503Y-95392656D01*
X161906785Y-95430075D01*
X161922029Y-95459995D01*
X161952673Y-95502171D01*
X161952674Y-95502172D01*
X162519824Y-94935021D01*
X162533978Y-94987842D01*
X162603096Y-95107557D01*
X162700843Y-95205304D01*
X162820558Y-95274422D01*
X162873378Y-95288575D01*
X162306226Y-95855725D01*
X162348402Y-95886368D01*
X162528971Y-95978372D01*
X162528974Y-95978374D01*
X162721708Y-96040996D01*
X162921873Y-96072700D01*
X163124527Y-96072700D01*
X163324691Y-96040996D01*
X163517425Y-95978374D01*
X163517428Y-95978372D01*
X163697997Y-95886368D01*
X163740171Y-95855726D01*
X163740171Y-95855725D01*
X163173021Y-95288575D01*
X163225842Y-95274422D01*
X163345557Y-95205304D01*
X163443304Y-95107557D01*
X163512422Y-94987842D01*
X163526575Y-94935021D01*
X164093725Y-95502171D01*
X164093726Y-95502171D01*
X164124368Y-95459997D01*
X164216372Y-95279428D01*
X164216374Y-95279425D01*
X164278996Y-95086691D01*
X164310700Y-94886527D01*
X164310700Y-94683872D01*
X164278996Y-94483708D01*
X164216374Y-94290974D01*
X164216372Y-94290971D01*
X164124368Y-94110402D01*
X164093725Y-94068227D01*
X164093725Y-94068226D01*
X163526575Y-94635377D01*
X163512422Y-94582558D01*
X163443304Y-94462843D01*
X163345557Y-94365096D01*
X163225842Y-94295978D01*
X163173022Y-94281824D01*
X163740172Y-93714674D01*
X163740171Y-93714673D01*
X163697997Y-93684031D01*
X163517428Y-93592027D01*
X163517425Y-93592025D01*
X163324691Y-93529403D01*
X163124527Y-93497700D01*
X162921873Y-93497700D01*
X162721708Y-93529403D01*
X162528974Y-93592025D01*
X162528971Y-93592026D01*
X162348404Y-93684030D01*
X162306227Y-93714673D01*
X162873378Y-94281824D01*
X162820558Y-94295978D01*
X162700843Y-94365096D01*
X162603096Y-94462843D01*
X162533978Y-94582558D01*
X162519824Y-94635377D01*
X161952673Y-94068227D01*
X161922030Y-94110404D01*
X161906785Y-94140326D01*
X161858810Y-94191122D01*
X161790989Y-94207917D01*
X161724854Y-94185379D01*
X161681403Y-94130664D01*
X161672300Y-94084031D01*
X161672300Y-92612441D01*
X161691985Y-92545402D01*
X161744789Y-92499647D01*
X161748803Y-92497898D01*
X161797031Y-92477922D01*
X161952708Y-92373902D01*
X162085102Y-92241508D01*
X162189122Y-92085831D01*
X162260773Y-91912851D01*
X162297300Y-91729216D01*
X162297300Y-91541984D01*
X162284020Y-91475220D01*
X162273078Y-91420207D01*
X162269882Y-91404143D01*
X162778700Y-91404143D01*
X162778700Y-91562257D01*
X162804583Y-91658851D01*
X162819623Y-91714983D01*
X162819626Y-91714990D01*
X162898675Y-91851909D01*
X162898681Y-91851917D01*
X163001083Y-91954319D01*
X163034568Y-92015642D01*
X163029584Y-92085334D01*
X163001083Y-92129681D01*
X162949481Y-92181282D01*
X162949475Y-92181290D01*
X162870426Y-92318209D01*
X162870423Y-92318216D01*
X162829500Y-92470943D01*
X162829500Y-92629057D01*
X162856017Y-92728018D01*
X162870423Y-92781783D01*
X162870426Y-92781790D01*
X162949475Y-92918709D01*
X162949479Y-92918714D01*
X162949480Y-92918716D01*
X163061284Y-93030520D01*
X163061286Y-93030521D01*
X163061290Y-93030524D01*
X163198209Y-93109573D01*
X163198216Y-93109577D01*
X163350943Y-93150500D01*
X163350945Y-93150500D01*
X163509055Y-93150500D01*
X163509057Y-93150500D01*
X163661784Y-93109577D01*
X163798716Y-93030520D01*
X163842319Y-92986917D01*
X163903642Y-92953432D01*
X163973334Y-92958416D01*
X164017681Y-92986917D01*
X164061284Y-93030520D01*
X164061286Y-93030521D01*
X164061290Y-93030524D01*
X164198209Y-93109573D01*
X164198216Y-93109577D01*
X164350943Y-93150500D01*
X164350945Y-93150500D01*
X164509055Y-93150500D01*
X164509057Y-93150500D01*
X164661784Y-93109577D01*
X164798716Y-93030520D01*
X164842319Y-92986917D01*
X164903642Y-92953432D01*
X164973334Y-92958416D01*
X165017681Y-92986917D01*
X165061284Y-93030520D01*
X165061286Y-93030521D01*
X165061290Y-93030524D01*
X165198209Y-93109573D01*
X165198216Y-93109577D01*
X165350943Y-93150500D01*
X165350945Y-93150500D01*
X165509055Y-93150500D01*
X165509057Y-93150500D01*
X165661784Y-93109577D01*
X165798716Y-93030520D01*
X165910520Y-92918716D01*
X165989577Y-92781784D01*
X166030500Y-92629057D01*
X166030500Y-92470943D01*
X165989577Y-92318216D01*
X165945290Y-92241508D01*
X165910524Y-92181290D01*
X165910518Y-92181282D01*
X165808117Y-92078881D01*
X165774632Y-92017558D01*
X165779616Y-91947866D01*
X165808117Y-91903519D01*
X165815888Y-91895748D01*
X165859720Y-91851916D01*
X165938777Y-91714984D01*
X165979700Y-91562257D01*
X165979700Y-91404143D01*
X165938777Y-91251416D01*
X165918356Y-91216046D01*
X165859724Y-91114490D01*
X165859718Y-91114482D01*
X165747917Y-91002681D01*
X165747909Y-91002675D01*
X165610990Y-90923626D01*
X165610986Y-90923624D01*
X165610984Y-90923623D01*
X165458257Y-90882700D01*
X165300143Y-90882700D01*
X165147416Y-90923623D01*
X165147409Y-90923626D01*
X165010490Y-91002675D01*
X165010482Y-91002681D01*
X164966881Y-91046283D01*
X164905558Y-91079768D01*
X164835866Y-91074784D01*
X164791519Y-91046283D01*
X164747917Y-91002681D01*
X164747909Y-91002675D01*
X164610990Y-90923626D01*
X164610986Y-90923624D01*
X164610984Y-90923623D01*
X164458257Y-90882700D01*
X164300143Y-90882700D01*
X164147416Y-90923623D01*
X164147409Y-90923626D01*
X164010490Y-91002675D01*
X164010482Y-91002681D01*
X163966881Y-91046283D01*
X163905558Y-91079768D01*
X163835866Y-91074784D01*
X163791519Y-91046283D01*
X163747917Y-91002681D01*
X163747909Y-91002675D01*
X163610990Y-90923626D01*
X163610986Y-90923624D01*
X163610984Y-90923623D01*
X163458257Y-90882700D01*
X163300143Y-90882700D01*
X163147416Y-90923623D01*
X163147409Y-90923626D01*
X163010490Y-91002675D01*
X163010482Y-91002681D01*
X162898681Y-91114482D01*
X162898675Y-91114490D01*
X162819626Y-91251409D01*
X162819623Y-91251416D01*
X162778700Y-91404143D01*
X162269882Y-91404143D01*
X162260774Y-91358354D01*
X162260773Y-91358353D01*
X162260773Y-91358349D01*
X162189122Y-91185369D01*
X162189121Y-91185368D01*
X162189118Y-91185362D01*
X162085102Y-91029692D01*
X162085099Y-91029688D01*
X161952711Y-90897300D01*
X161952707Y-90897297D01*
X161797037Y-90793281D01*
X161797028Y-90793276D01*
X161624051Y-90721627D01*
X161624043Y-90721625D01*
X161440420Y-90685100D01*
X161440416Y-90685100D01*
X161253184Y-90685100D01*
X161253179Y-90685100D01*
X161069556Y-90721625D01*
X161069548Y-90721627D01*
X160896571Y-90793276D01*
X160896562Y-90793281D01*
X160740892Y-90897297D01*
X160740888Y-90897300D01*
X160608500Y-91029688D01*
X160608497Y-91029692D01*
X160504481Y-91185362D01*
X160504476Y-91185371D01*
X160432827Y-91358348D01*
X160432825Y-91358356D01*
X160396300Y-91541979D01*
X156018000Y-91541979D01*
X156018000Y-91471217D01*
X155987221Y-91276894D01*
X155926418Y-91089764D01*
X155837096Y-90914458D01*
X155811678Y-90879473D01*
X155811677Y-90879473D01*
X155121553Y-91569599D01*
X155118000Y-91569599D01*
X155118000Y-91523522D01*
X155094148Y-91434505D01*
X155048070Y-91354695D01*
X154982905Y-91289530D01*
X154903095Y-91243452D01*
X154814078Y-91219600D01*
X154721922Y-91219600D01*
X154632905Y-91243452D01*
X154553095Y-91289530D01*
X154487930Y-91354695D01*
X154441852Y-91434505D01*
X154418000Y-91523522D01*
X154368369Y-91523522D01*
X153724320Y-90879472D01*
X153724320Y-90879473D01*
X153698902Y-90914459D01*
X153698899Y-90914463D01*
X153609582Y-91089761D01*
X153548778Y-91276894D01*
X153518000Y-91471217D01*
X148733700Y-91471217D01*
X148733700Y-91287984D01*
X148697173Y-91104349D01*
X148625522Y-90931369D01*
X148625521Y-90931368D01*
X148625518Y-90931362D01*
X148521502Y-90775692D01*
X148521499Y-90775688D01*
X148389111Y-90643300D01*
X148389107Y-90643297D01*
X148233437Y-90539281D01*
X148233428Y-90539276D01*
X148201184Y-90525920D01*
X154077872Y-90525920D01*
X154768000Y-91216046D01*
X154768001Y-91216046D01*
X155458125Y-90525920D01*
X155458125Y-90525919D01*
X155423145Y-90500505D01*
X155247835Y-90411181D01*
X155060705Y-90350378D01*
X154866382Y-90319600D01*
X154669618Y-90319600D01*
X154475294Y-90350378D01*
X154288161Y-90411182D01*
X154112863Y-90500499D01*
X154112859Y-90500502D01*
X154077873Y-90525920D01*
X154077872Y-90525920D01*
X148201184Y-90525920D01*
X148060451Y-90467627D01*
X148060443Y-90467625D01*
X147876820Y-90431100D01*
X147876816Y-90431100D01*
X147689584Y-90431100D01*
X147689579Y-90431100D01*
X147505956Y-90467625D01*
X147505948Y-90467627D01*
X147332971Y-90539276D01*
X147332962Y-90539281D01*
X147177292Y-90643297D01*
X147177288Y-90643300D01*
X147044900Y-90775688D01*
X147044897Y-90775692D01*
X146940881Y-90931362D01*
X146940876Y-90931371D01*
X146869227Y-91104348D01*
X146869225Y-91104356D01*
X146832700Y-91287979D01*
X130900500Y-91287979D01*
X130900500Y-87934313D01*
X131262300Y-87934313D01*
X131262300Y-88123286D01*
X131291859Y-88309918D01*
X131350254Y-88489636D01*
X131421417Y-88629300D01*
X131436040Y-88657999D01*
X131547110Y-88810873D01*
X131680727Y-88944490D01*
X131833601Y-89055560D01*
X131913147Y-89096090D01*
X132001963Y-89141345D01*
X132001965Y-89141345D01*
X132001968Y-89141347D01*
X132098297Y-89172646D01*
X132181681Y-89199740D01*
X132368314Y-89229300D01*
X132368319Y-89229300D01*
X132557286Y-89229300D01*
X132743918Y-89199740D01*
X132923632Y-89141347D01*
X133091999Y-89055560D01*
X133244873Y-88944490D01*
X133378490Y-88810873D01*
X133489560Y-88657999D01*
X133575347Y-88489632D01*
X133633740Y-88309918D01*
X133641554Y-88260583D01*
X133663300Y-88123286D01*
X133663300Y-87949743D01*
X134862300Y-87949743D01*
X134862300Y-88107856D01*
X134903223Y-88260583D01*
X134903226Y-88260590D01*
X134982275Y-88397509D01*
X134982279Y-88397514D01*
X134982280Y-88397516D01*
X135094084Y-88509320D01*
X135094086Y-88509321D01*
X135094090Y-88509324D01*
X135231009Y-88588373D01*
X135231016Y-88588377D01*
X135383743Y-88629300D01*
X135383745Y-88629300D01*
X135541855Y-88629300D01*
X135541857Y-88629300D01*
X135694584Y-88588377D01*
X135831516Y-88509320D01*
X135943320Y-88397516D01*
X136022377Y-88260584D01*
X136063300Y-88107857D01*
X136063300Y-87949743D01*
X137862300Y-87949743D01*
X137862300Y-88107856D01*
X137903223Y-88260583D01*
X137903226Y-88260590D01*
X137982275Y-88397509D01*
X137982279Y-88397514D01*
X137982280Y-88397516D01*
X138094084Y-88509320D01*
X138094086Y-88509321D01*
X138094090Y-88509324D01*
X138231009Y-88588373D01*
X138231016Y-88588377D01*
X138383743Y-88629300D01*
X138383745Y-88629300D01*
X138541855Y-88629300D01*
X138541857Y-88629300D01*
X138694584Y-88588377D01*
X138831516Y-88509320D01*
X138943320Y-88397516D01*
X139022377Y-88260584D01*
X139063300Y-88107857D01*
X139063300Y-87949743D01*
X140862300Y-87949743D01*
X140862300Y-88107856D01*
X140903223Y-88260583D01*
X140903226Y-88260590D01*
X140982275Y-88397509D01*
X140982279Y-88397514D01*
X140982280Y-88397516D01*
X141094084Y-88509320D01*
X141094086Y-88509321D01*
X141094090Y-88509324D01*
X141231009Y-88588373D01*
X141231016Y-88588377D01*
X141383743Y-88629300D01*
X141383745Y-88629300D01*
X141541855Y-88629300D01*
X141541857Y-88629300D01*
X141694584Y-88588377D01*
X141831516Y-88509320D01*
X141943320Y-88397516D01*
X142022377Y-88260584D01*
X142063300Y-88107857D01*
X142063300Y-87949743D01*
X143862300Y-87949743D01*
X143862300Y-88107856D01*
X143903223Y-88260583D01*
X143903226Y-88260590D01*
X143982275Y-88397509D01*
X143982279Y-88397514D01*
X143982280Y-88397516D01*
X144094084Y-88509320D01*
X144094086Y-88509321D01*
X144094090Y-88509324D01*
X144231009Y-88588373D01*
X144231016Y-88588377D01*
X144383743Y-88629300D01*
X144383745Y-88629300D01*
X144541855Y-88629300D01*
X144541857Y-88629300D01*
X144694584Y-88588377D01*
X144831516Y-88509320D01*
X144943320Y-88397516D01*
X145022377Y-88260584D01*
X145063300Y-88107857D01*
X145063300Y-87949743D01*
X146862300Y-87949743D01*
X146862300Y-88107856D01*
X146903223Y-88260583D01*
X146903226Y-88260590D01*
X146982275Y-88397509D01*
X146982279Y-88397514D01*
X146982280Y-88397516D01*
X147094084Y-88509320D01*
X147094086Y-88509321D01*
X147094090Y-88509324D01*
X147231009Y-88588373D01*
X147231016Y-88588377D01*
X147383743Y-88629300D01*
X147383745Y-88629300D01*
X147541855Y-88629300D01*
X147541857Y-88629300D01*
X147694584Y-88588377D01*
X147831516Y-88509320D01*
X147943320Y-88397516D01*
X148022377Y-88260584D01*
X148063300Y-88107857D01*
X148063300Y-87949743D01*
X149862300Y-87949743D01*
X149862300Y-88107856D01*
X149903223Y-88260583D01*
X149903226Y-88260590D01*
X149982275Y-88397509D01*
X149982279Y-88397514D01*
X149982280Y-88397516D01*
X150094084Y-88509320D01*
X150094086Y-88509321D01*
X150094090Y-88509324D01*
X150231009Y-88588373D01*
X150231016Y-88588377D01*
X150383743Y-88629300D01*
X150383745Y-88629300D01*
X150541855Y-88629300D01*
X150541857Y-88629300D01*
X150694584Y-88588377D01*
X150831516Y-88509320D01*
X150943320Y-88397516D01*
X151022377Y-88260584D01*
X151063300Y-88107857D01*
X151063300Y-87949743D01*
X152862300Y-87949743D01*
X152862300Y-88107856D01*
X152903223Y-88260583D01*
X152903226Y-88260590D01*
X152982275Y-88397509D01*
X152982279Y-88397514D01*
X152982280Y-88397516D01*
X153094084Y-88509320D01*
X153094086Y-88509321D01*
X153094090Y-88509324D01*
X153231009Y-88588373D01*
X153231016Y-88588377D01*
X153383743Y-88629300D01*
X153383745Y-88629300D01*
X153541855Y-88629300D01*
X153541857Y-88629300D01*
X153694584Y-88588377D01*
X153831516Y-88509320D01*
X153943320Y-88397516D01*
X154022377Y-88260584D01*
X154063300Y-88107857D01*
X154063300Y-87949743D01*
X155862300Y-87949743D01*
X155862300Y-88107856D01*
X155903223Y-88260583D01*
X155903226Y-88260590D01*
X155982275Y-88397509D01*
X155982279Y-88397514D01*
X155982280Y-88397516D01*
X156094084Y-88509320D01*
X156094086Y-88509321D01*
X156094090Y-88509324D01*
X156231009Y-88588373D01*
X156231016Y-88588377D01*
X156383743Y-88629300D01*
X156383745Y-88629300D01*
X156541855Y-88629300D01*
X156541857Y-88629300D01*
X156694584Y-88588377D01*
X156831516Y-88509320D01*
X156943320Y-88397516D01*
X157022377Y-88260584D01*
X157063300Y-88107857D01*
X157063300Y-87949743D01*
X158862300Y-87949743D01*
X158862300Y-88107856D01*
X158903223Y-88260583D01*
X158903226Y-88260590D01*
X158982275Y-88397509D01*
X158982279Y-88397514D01*
X158982280Y-88397516D01*
X159094084Y-88509320D01*
X159094086Y-88509321D01*
X159094090Y-88509324D01*
X159231009Y-88588373D01*
X159231016Y-88588377D01*
X159383743Y-88629300D01*
X159383745Y-88629300D01*
X159541855Y-88629300D01*
X159541857Y-88629300D01*
X159694584Y-88588377D01*
X159831516Y-88509320D01*
X159943320Y-88397516D01*
X160022377Y-88260584D01*
X160063300Y-88107857D01*
X160063300Y-87949743D01*
X161862300Y-87949743D01*
X161862300Y-88107856D01*
X161903223Y-88260583D01*
X161903226Y-88260590D01*
X161982275Y-88397509D01*
X161982279Y-88397514D01*
X161982280Y-88397516D01*
X162094084Y-88509320D01*
X162094086Y-88509321D01*
X162094090Y-88509324D01*
X162231009Y-88588373D01*
X162231016Y-88588377D01*
X162383743Y-88629300D01*
X162383745Y-88629300D01*
X162541855Y-88629300D01*
X162541857Y-88629300D01*
X162694584Y-88588377D01*
X162831516Y-88509320D01*
X162943320Y-88397516D01*
X163022377Y-88260584D01*
X163063300Y-88107857D01*
X163063300Y-87949743D01*
X164862300Y-87949743D01*
X164862300Y-88107856D01*
X164903223Y-88260583D01*
X164903226Y-88260590D01*
X164982275Y-88397509D01*
X164982279Y-88397514D01*
X164982280Y-88397516D01*
X165094084Y-88509320D01*
X165094086Y-88509321D01*
X165094090Y-88509324D01*
X165231009Y-88588373D01*
X165231016Y-88588377D01*
X165383743Y-88629300D01*
X165383745Y-88629300D01*
X165541855Y-88629300D01*
X165541857Y-88629300D01*
X165694584Y-88588377D01*
X165831516Y-88509320D01*
X165943320Y-88397516D01*
X166022377Y-88260584D01*
X166063300Y-88107857D01*
X166063300Y-87949743D01*
X166059166Y-87934313D01*
X167262300Y-87934313D01*
X167262300Y-88123286D01*
X167291859Y-88309918D01*
X167350254Y-88489636D01*
X167421417Y-88629300D01*
X167436040Y-88657999D01*
X167547110Y-88810873D01*
X167680727Y-88944490D01*
X167833601Y-89055560D01*
X167913147Y-89096090D01*
X168001963Y-89141345D01*
X168001965Y-89141345D01*
X168001968Y-89141347D01*
X168098297Y-89172646D01*
X168181681Y-89199740D01*
X168368314Y-89229300D01*
X168368319Y-89229300D01*
X168557286Y-89229300D01*
X168743918Y-89199740D01*
X168923632Y-89141347D01*
X169091999Y-89055560D01*
X169244873Y-88944490D01*
X169378490Y-88810873D01*
X169489560Y-88657999D01*
X169575347Y-88489632D01*
X169633740Y-88309918D01*
X169641554Y-88260583D01*
X169663300Y-88123286D01*
X169663300Y-87934313D01*
X169633740Y-87747681D01*
X169605277Y-87660082D01*
X169575347Y-87567968D01*
X169575345Y-87567965D01*
X169575345Y-87567963D01*
X169489559Y-87399600D01*
X169452059Y-87347986D01*
X169378490Y-87246727D01*
X169244873Y-87113110D01*
X169091999Y-87002040D01*
X169063516Y-86987527D01*
X168923636Y-86916254D01*
X168743918Y-86857859D01*
X168557286Y-86828300D01*
X168557281Y-86828300D01*
X168368319Y-86828300D01*
X168368314Y-86828300D01*
X168181681Y-86857859D01*
X168001963Y-86916254D01*
X167833600Y-87002040D01*
X167746379Y-87065410D01*
X167680727Y-87113110D01*
X167680725Y-87113112D01*
X167680724Y-87113112D01*
X167547112Y-87246724D01*
X167547112Y-87246725D01*
X167547110Y-87246727D01*
X167499410Y-87312379D01*
X167436040Y-87399600D01*
X167350254Y-87567963D01*
X167291859Y-87747681D01*
X167262300Y-87934313D01*
X166059166Y-87934313D01*
X166022377Y-87797016D01*
X165969180Y-87704875D01*
X165943324Y-87660090D01*
X165943318Y-87660082D01*
X165831517Y-87548281D01*
X165831509Y-87548275D01*
X165694590Y-87469226D01*
X165694586Y-87469224D01*
X165694584Y-87469223D01*
X165541857Y-87428300D01*
X165383743Y-87428300D01*
X165231016Y-87469223D01*
X165231009Y-87469226D01*
X165094090Y-87548275D01*
X165094082Y-87548281D01*
X164982281Y-87660082D01*
X164982275Y-87660090D01*
X164903226Y-87797009D01*
X164903223Y-87797016D01*
X164862300Y-87949743D01*
X163063300Y-87949743D01*
X163022377Y-87797016D01*
X162969180Y-87704875D01*
X162943324Y-87660090D01*
X162943318Y-87660082D01*
X162831517Y-87548281D01*
X162831509Y-87548275D01*
X162694590Y-87469226D01*
X162694586Y-87469224D01*
X162694584Y-87469223D01*
X162541857Y-87428300D01*
X162383743Y-87428300D01*
X162231016Y-87469223D01*
X162231009Y-87469226D01*
X162094090Y-87548275D01*
X162094082Y-87548281D01*
X161982281Y-87660082D01*
X161982275Y-87660090D01*
X161903226Y-87797009D01*
X161903223Y-87797016D01*
X161862300Y-87949743D01*
X160063300Y-87949743D01*
X160022377Y-87797016D01*
X159969180Y-87704875D01*
X159943324Y-87660090D01*
X159943318Y-87660082D01*
X159831517Y-87548281D01*
X159831509Y-87548275D01*
X159694590Y-87469226D01*
X159694586Y-87469224D01*
X159694584Y-87469223D01*
X159541857Y-87428300D01*
X159383743Y-87428300D01*
X159231016Y-87469223D01*
X159231009Y-87469226D01*
X159094090Y-87548275D01*
X159094082Y-87548281D01*
X158982281Y-87660082D01*
X158982275Y-87660090D01*
X158903226Y-87797009D01*
X158903223Y-87797016D01*
X158862300Y-87949743D01*
X157063300Y-87949743D01*
X157022377Y-87797016D01*
X156969180Y-87704875D01*
X156943324Y-87660090D01*
X156943318Y-87660082D01*
X156831517Y-87548281D01*
X156831509Y-87548275D01*
X156694590Y-87469226D01*
X156694586Y-87469224D01*
X156694584Y-87469223D01*
X156541857Y-87428300D01*
X156383743Y-87428300D01*
X156231016Y-87469223D01*
X156231009Y-87469226D01*
X156094090Y-87548275D01*
X156094082Y-87548281D01*
X155982281Y-87660082D01*
X155982275Y-87660090D01*
X155903226Y-87797009D01*
X155903223Y-87797016D01*
X155862300Y-87949743D01*
X154063300Y-87949743D01*
X154022377Y-87797016D01*
X153969180Y-87704875D01*
X153943324Y-87660090D01*
X153943318Y-87660082D01*
X153831517Y-87548281D01*
X153831509Y-87548275D01*
X153694590Y-87469226D01*
X153694586Y-87469224D01*
X153694584Y-87469223D01*
X153541857Y-87428300D01*
X153383743Y-87428300D01*
X153231016Y-87469223D01*
X153231009Y-87469226D01*
X153094090Y-87548275D01*
X153094082Y-87548281D01*
X152982281Y-87660082D01*
X152982275Y-87660090D01*
X152903226Y-87797009D01*
X152903223Y-87797016D01*
X152862300Y-87949743D01*
X151063300Y-87949743D01*
X151022377Y-87797016D01*
X150969180Y-87704875D01*
X150943324Y-87660090D01*
X150943318Y-87660082D01*
X150831517Y-87548281D01*
X150831509Y-87548275D01*
X150694590Y-87469226D01*
X150694586Y-87469224D01*
X150694584Y-87469223D01*
X150541857Y-87428300D01*
X150383743Y-87428300D01*
X150231016Y-87469223D01*
X150231009Y-87469226D01*
X150094090Y-87548275D01*
X150094082Y-87548281D01*
X149982281Y-87660082D01*
X149982275Y-87660090D01*
X149903226Y-87797009D01*
X149903223Y-87797016D01*
X149862300Y-87949743D01*
X148063300Y-87949743D01*
X148022377Y-87797016D01*
X147969180Y-87704875D01*
X147943324Y-87660090D01*
X147943318Y-87660082D01*
X147831517Y-87548281D01*
X147831509Y-87548275D01*
X147694590Y-87469226D01*
X147694586Y-87469224D01*
X147694584Y-87469223D01*
X147541857Y-87428300D01*
X147383743Y-87428300D01*
X147231016Y-87469223D01*
X147231009Y-87469226D01*
X147094090Y-87548275D01*
X147094082Y-87548281D01*
X146982281Y-87660082D01*
X146982275Y-87660090D01*
X146903226Y-87797009D01*
X146903223Y-87797016D01*
X146862300Y-87949743D01*
X145063300Y-87949743D01*
X145022377Y-87797016D01*
X144969180Y-87704875D01*
X144943324Y-87660090D01*
X144943318Y-87660082D01*
X144831517Y-87548281D01*
X144831509Y-87548275D01*
X144694590Y-87469226D01*
X144694586Y-87469224D01*
X144694584Y-87469223D01*
X144541857Y-87428300D01*
X144383743Y-87428300D01*
X144231016Y-87469223D01*
X144231009Y-87469226D01*
X144094090Y-87548275D01*
X144094082Y-87548281D01*
X143982281Y-87660082D01*
X143982275Y-87660090D01*
X143903226Y-87797009D01*
X143903223Y-87797016D01*
X143862300Y-87949743D01*
X142063300Y-87949743D01*
X142022377Y-87797016D01*
X141969180Y-87704875D01*
X141943324Y-87660090D01*
X141943318Y-87660082D01*
X141831517Y-87548281D01*
X141831509Y-87548275D01*
X141694590Y-87469226D01*
X141694586Y-87469224D01*
X141694584Y-87469223D01*
X141541857Y-87428300D01*
X141383743Y-87428300D01*
X141231016Y-87469223D01*
X141231009Y-87469226D01*
X141094090Y-87548275D01*
X141094082Y-87548281D01*
X140982281Y-87660082D01*
X140982275Y-87660090D01*
X140903226Y-87797009D01*
X140903223Y-87797016D01*
X140862300Y-87949743D01*
X139063300Y-87949743D01*
X139022377Y-87797016D01*
X138969180Y-87704875D01*
X138943324Y-87660090D01*
X138943318Y-87660082D01*
X138831517Y-87548281D01*
X138831509Y-87548275D01*
X138694590Y-87469226D01*
X138694586Y-87469224D01*
X138694584Y-87469223D01*
X138541857Y-87428300D01*
X138383743Y-87428300D01*
X138231016Y-87469223D01*
X138231009Y-87469226D01*
X138094090Y-87548275D01*
X138094082Y-87548281D01*
X137982281Y-87660082D01*
X137982275Y-87660090D01*
X137903226Y-87797009D01*
X137903223Y-87797016D01*
X137862300Y-87949743D01*
X136063300Y-87949743D01*
X136022377Y-87797016D01*
X135969180Y-87704875D01*
X135943324Y-87660090D01*
X135943318Y-87660082D01*
X135831517Y-87548281D01*
X135831509Y-87548275D01*
X135694590Y-87469226D01*
X135694586Y-87469224D01*
X135694584Y-87469223D01*
X135541857Y-87428300D01*
X135383743Y-87428300D01*
X135231016Y-87469223D01*
X135231009Y-87469226D01*
X135094090Y-87548275D01*
X135094082Y-87548281D01*
X134982281Y-87660082D01*
X134982275Y-87660090D01*
X134903226Y-87797009D01*
X134903223Y-87797016D01*
X134862300Y-87949743D01*
X133663300Y-87949743D01*
X133663300Y-87934313D01*
X133633740Y-87747681D01*
X133605277Y-87660082D01*
X133575347Y-87567968D01*
X133575345Y-87567965D01*
X133575345Y-87567963D01*
X133489559Y-87399600D01*
X133452059Y-87347986D01*
X133378490Y-87246727D01*
X133244873Y-87113110D01*
X133091999Y-87002040D01*
X133063516Y-86987527D01*
X132923636Y-86916254D01*
X132743918Y-86857859D01*
X132557286Y-86828300D01*
X132557281Y-86828300D01*
X132368319Y-86828300D01*
X132368314Y-86828300D01*
X132181681Y-86857859D01*
X132001963Y-86916254D01*
X131833600Y-87002040D01*
X131746379Y-87065410D01*
X131680727Y-87113110D01*
X131680725Y-87113112D01*
X131680724Y-87113112D01*
X131547112Y-87246724D01*
X131547112Y-87246725D01*
X131547110Y-87246727D01*
X131499410Y-87312379D01*
X131436040Y-87399600D01*
X131350254Y-87567963D01*
X131291859Y-87747681D01*
X131262300Y-87934313D01*
X130900500Y-87934313D01*
X130900500Y-87704875D01*
X130900882Y-87695146D01*
X130903642Y-87660082D01*
X130914502Y-87522078D01*
X130917544Y-87502873D01*
X130956932Y-87338812D01*
X130962938Y-87320327D01*
X131027503Y-87164455D01*
X131036335Y-87147122D01*
X131065131Y-87100130D01*
X131124490Y-87003263D01*
X131135914Y-86987539D01*
X131245492Y-86859241D01*
X131259241Y-86845492D01*
X131387539Y-86735914D01*
X131403263Y-86724490D01*
X131500130Y-86665131D01*
X131547122Y-86636335D01*
X131564458Y-86627502D01*
X131720327Y-86562938D01*
X131738812Y-86556932D01*
X131902873Y-86517544D01*
X131922078Y-86514502D01*
X132095146Y-86500881D01*
X132104875Y-86500500D01*
X132147595Y-86500500D01*
X169052405Y-86500500D01*
X169095125Y-86500500D01*
X169104853Y-86500881D01*
G37*
%TD.AperFunction*%
%TD*%
M02*
