%TF.GenerationSoftware,KiCad,Pcbnew,10.0.3*%
%TF.CreationDate,2026-06-09T21:51:01+05:30*%
%TF.ProjectId,LiIon_3V3_500mA_Regulator,4c69496f-6e5f-4335-9633-5f3530306d41,REv 1.0*%
%TF.SameCoordinates,Original*%
%TF.FileFunction,Legend,Top*%
%TF.FilePolarity,Positive*%
%FSLAX46Y46*%
G04 Gerber Fmt 4.6, Leading zero omitted, Abs format (unit mm)*
G04 Created by KiCad (PCBNEW 10.0.3) date 2026-06-09 21:51:01*
%MOMM*%
%LPD*%
G01*
G04 APERTURE LIST*
%ADD10C,0.150000*%
%ADD11C,0.200000*%
%ADD12C,0.300000*%
%ADD13C,0.254000*%
%ADD14C,0.158750*%
%ADD15C,0.120000*%
%ADD16C,0.152400*%
%ADD17C,0.127000*%
%ADD18C,0.250000*%
G04 APERTURE END LIST*
D10*
X84257143Y-82054819D02*
X84590476Y-83054819D01*
X84590476Y-83054819D02*
X84923809Y-82054819D01*
X85019048Y-83150057D02*
X85780952Y-83150057D01*
X86209524Y-82054819D02*
X86400000Y-82054819D01*
X86400000Y-82054819D02*
X86495238Y-82102438D01*
X86495238Y-82102438D02*
X86590476Y-82197676D01*
X86590476Y-82197676D02*
X86638095Y-82388152D01*
X86638095Y-82388152D02*
X86638095Y-82721485D01*
X86638095Y-82721485D02*
X86590476Y-82911961D01*
X86590476Y-82911961D02*
X86495238Y-83007200D01*
X86495238Y-83007200D02*
X86400000Y-83054819D01*
X86400000Y-83054819D02*
X86209524Y-83054819D01*
X86209524Y-83054819D02*
X86114286Y-83007200D01*
X86114286Y-83007200D02*
X86019048Y-82911961D01*
X86019048Y-82911961D02*
X85971429Y-82721485D01*
X85971429Y-82721485D02*
X85971429Y-82388152D01*
X85971429Y-82388152D02*
X86019048Y-82197676D01*
X86019048Y-82197676D02*
X86114286Y-82102438D01*
X86114286Y-82102438D02*
X86209524Y-82054819D01*
X87066667Y-82054819D02*
X87066667Y-82864342D01*
X87066667Y-82864342D02*
X87114286Y-82959580D01*
X87114286Y-82959580D02*
X87161905Y-83007200D01*
X87161905Y-83007200D02*
X87257143Y-83054819D01*
X87257143Y-83054819D02*
X87447619Y-83054819D01*
X87447619Y-83054819D02*
X87542857Y-83007200D01*
X87542857Y-83007200D02*
X87590476Y-82959580D01*
X87590476Y-82959580D02*
X87638095Y-82864342D01*
X87638095Y-82864342D02*
X87638095Y-82054819D01*
X87971429Y-82054819D02*
X88542857Y-82054819D01*
X88257143Y-83054819D02*
X88257143Y-82054819D01*
D11*
X53969673Y-75886266D02*
X54731578Y-75886266D01*
X54350625Y-76267219D02*
X54350625Y-75505314D01*
X55064911Y-75267219D02*
X55398244Y-76267219D01*
X55398244Y-76267219D02*
X55731577Y-75267219D01*
X56064911Y-75743409D02*
X56398244Y-75743409D01*
X56541101Y-76267219D02*
X56064911Y-76267219D01*
X56064911Y-76267219D02*
X56064911Y-75267219D01*
X56064911Y-75267219D02*
X56541101Y-75267219D01*
X54693482Y-77914838D02*
X54598244Y-77867219D01*
X54598244Y-77867219D02*
X54455387Y-77867219D01*
X54455387Y-77867219D02*
X54312530Y-77914838D01*
X54312530Y-77914838D02*
X54217292Y-78010076D01*
X54217292Y-78010076D02*
X54169673Y-78105314D01*
X54169673Y-78105314D02*
X54122054Y-78295790D01*
X54122054Y-78295790D02*
X54122054Y-78438647D01*
X54122054Y-78438647D02*
X54169673Y-78629123D01*
X54169673Y-78629123D02*
X54217292Y-78724361D01*
X54217292Y-78724361D02*
X54312530Y-78819600D01*
X54312530Y-78819600D02*
X54455387Y-78867219D01*
X54455387Y-78867219D02*
X54550625Y-78867219D01*
X54550625Y-78867219D02*
X54693482Y-78819600D01*
X54693482Y-78819600D02*
X54741101Y-78771980D01*
X54741101Y-78771980D02*
X54741101Y-78438647D01*
X54741101Y-78438647D02*
X54550625Y-78438647D01*
X55169673Y-78867219D02*
X55169673Y-77867219D01*
X55169673Y-77867219D02*
X55741101Y-78867219D01*
X55741101Y-78867219D02*
X55741101Y-77867219D01*
X56217292Y-78867219D02*
X56217292Y-77867219D01*
X56217292Y-77867219D02*
X56455387Y-77867219D01*
X56455387Y-77867219D02*
X56598244Y-77914838D01*
X56598244Y-77914838D02*
X56693482Y-78010076D01*
X56693482Y-78010076D02*
X56741101Y-78105314D01*
X56741101Y-78105314D02*
X56788720Y-78295790D01*
X56788720Y-78295790D02*
X56788720Y-78438647D01*
X56788720Y-78438647D02*
X56741101Y-78629123D01*
X56741101Y-78629123D02*
X56693482Y-78724361D01*
X56693482Y-78724361D02*
X56598244Y-78819600D01*
X56598244Y-78819600D02*
X56455387Y-78867219D01*
X56455387Y-78867219D02*
X56217292Y-78867219D01*
X83775235Y-80564219D02*
X84394282Y-80564219D01*
X84394282Y-80564219D02*
X84060949Y-80945171D01*
X84060949Y-80945171D02*
X84203806Y-80945171D01*
X84203806Y-80945171D02*
X84299044Y-80992790D01*
X84299044Y-80992790D02*
X84346663Y-81040409D01*
X84346663Y-81040409D02*
X84394282Y-81135647D01*
X84394282Y-81135647D02*
X84394282Y-81373742D01*
X84394282Y-81373742D02*
X84346663Y-81468980D01*
X84346663Y-81468980D02*
X84299044Y-81516600D01*
X84299044Y-81516600D02*
X84203806Y-81564219D01*
X84203806Y-81564219D02*
X83918092Y-81564219D01*
X83918092Y-81564219D02*
X83822854Y-81516600D01*
X83822854Y-81516600D02*
X83775235Y-81468980D01*
X84679997Y-80564219D02*
X85013330Y-81564219D01*
X85013330Y-81564219D02*
X85346663Y-80564219D01*
X85584759Y-80564219D02*
X86203806Y-80564219D01*
X86203806Y-80564219D02*
X85870473Y-80945171D01*
X85870473Y-80945171D02*
X86013330Y-80945171D01*
X86013330Y-80945171D02*
X86108568Y-80992790D01*
X86108568Y-80992790D02*
X86156187Y-81040409D01*
X86156187Y-81040409D02*
X86203806Y-81135647D01*
X86203806Y-81135647D02*
X86203806Y-81373742D01*
X86203806Y-81373742D02*
X86156187Y-81468980D01*
X86156187Y-81468980D02*
X86108568Y-81516600D01*
X86108568Y-81516600D02*
X86013330Y-81564219D01*
X86013330Y-81564219D02*
X85727616Y-81564219D01*
X85727616Y-81564219D02*
X85632378Y-81516600D01*
X85632378Y-81516600D02*
X85584759Y-81468980D01*
X87346663Y-80516600D02*
X86489521Y-81802314D01*
X88156187Y-80564219D02*
X87679997Y-80564219D01*
X87679997Y-80564219D02*
X87632378Y-81040409D01*
X87632378Y-81040409D02*
X87679997Y-80992790D01*
X87679997Y-80992790D02*
X87775235Y-80945171D01*
X87775235Y-80945171D02*
X88013330Y-80945171D01*
X88013330Y-80945171D02*
X88108568Y-80992790D01*
X88108568Y-80992790D02*
X88156187Y-81040409D01*
X88156187Y-81040409D02*
X88203806Y-81135647D01*
X88203806Y-81135647D02*
X88203806Y-81373742D01*
X88203806Y-81373742D02*
X88156187Y-81468980D01*
X88156187Y-81468980D02*
X88108568Y-81516600D01*
X88108568Y-81516600D02*
X88013330Y-81564219D01*
X88013330Y-81564219D02*
X87775235Y-81564219D01*
X87775235Y-81564219D02*
X87679997Y-81516600D01*
X87679997Y-81516600D02*
X87632378Y-81468980D01*
X88822854Y-80564219D02*
X88918092Y-80564219D01*
X88918092Y-80564219D02*
X89013330Y-80611838D01*
X89013330Y-80611838D02*
X89060949Y-80659457D01*
X89060949Y-80659457D02*
X89108568Y-80754695D01*
X89108568Y-80754695D02*
X89156187Y-80945171D01*
X89156187Y-80945171D02*
X89156187Y-81183266D01*
X89156187Y-81183266D02*
X89108568Y-81373742D01*
X89108568Y-81373742D02*
X89060949Y-81468980D01*
X89060949Y-81468980D02*
X89013330Y-81516600D01*
X89013330Y-81516600D02*
X88918092Y-81564219D01*
X88918092Y-81564219D02*
X88822854Y-81564219D01*
X88822854Y-81564219D02*
X88727616Y-81516600D01*
X88727616Y-81516600D02*
X88679997Y-81468980D01*
X88679997Y-81468980D02*
X88632378Y-81373742D01*
X88632378Y-81373742D02*
X88584759Y-81183266D01*
X88584759Y-81183266D02*
X88584759Y-80945171D01*
X88584759Y-80945171D02*
X88632378Y-80754695D01*
X88632378Y-80754695D02*
X88679997Y-80659457D01*
X88679997Y-80659457D02*
X88727616Y-80611838D01*
X88727616Y-80611838D02*
X88822854Y-80564219D01*
X89775235Y-80564219D02*
X89870473Y-80564219D01*
X89870473Y-80564219D02*
X89965711Y-80611838D01*
X89965711Y-80611838D02*
X90013330Y-80659457D01*
X90013330Y-80659457D02*
X90060949Y-80754695D01*
X90060949Y-80754695D02*
X90108568Y-80945171D01*
X90108568Y-80945171D02*
X90108568Y-81183266D01*
X90108568Y-81183266D02*
X90060949Y-81373742D01*
X90060949Y-81373742D02*
X90013330Y-81468980D01*
X90013330Y-81468980D02*
X89965711Y-81516600D01*
X89965711Y-81516600D02*
X89870473Y-81564219D01*
X89870473Y-81564219D02*
X89775235Y-81564219D01*
X89775235Y-81564219D02*
X89679997Y-81516600D01*
X89679997Y-81516600D02*
X89632378Y-81468980D01*
X89632378Y-81468980D02*
X89584759Y-81373742D01*
X89584759Y-81373742D02*
X89537140Y-81183266D01*
X89537140Y-81183266D02*
X89537140Y-80945171D01*
X89537140Y-80945171D02*
X89584759Y-80754695D01*
X89584759Y-80754695D02*
X89632378Y-80659457D01*
X89632378Y-80659457D02*
X89679997Y-80611838D01*
X89679997Y-80611838D02*
X89775235Y-80564219D01*
X90537140Y-81564219D02*
X90537140Y-80897552D01*
X90537140Y-80992790D02*
X90584759Y-80945171D01*
X90584759Y-80945171D02*
X90679997Y-80897552D01*
X90679997Y-80897552D02*
X90822854Y-80897552D01*
X90822854Y-80897552D02*
X90918092Y-80945171D01*
X90918092Y-80945171D02*
X90965711Y-81040409D01*
X90965711Y-81040409D02*
X90965711Y-81564219D01*
X90965711Y-81040409D02*
X91013330Y-80945171D01*
X91013330Y-80945171D02*
X91108568Y-80897552D01*
X91108568Y-80897552D02*
X91251425Y-80897552D01*
X91251425Y-80897552D02*
X91346664Y-80945171D01*
X91346664Y-80945171D02*
X91394283Y-81040409D01*
X91394283Y-81040409D02*
X91394283Y-81564219D01*
X91822854Y-81278504D02*
X92299044Y-81278504D01*
X91727616Y-81564219D02*
X92060949Y-80564219D01*
X92060949Y-80564219D02*
X92394282Y-81564219D01*
X89693482Y-73600438D02*
X89598244Y-73552819D01*
X89598244Y-73552819D02*
X89455387Y-73552819D01*
X89455387Y-73552819D02*
X89312530Y-73600438D01*
X89312530Y-73600438D02*
X89217292Y-73695676D01*
X89217292Y-73695676D02*
X89169673Y-73790914D01*
X89169673Y-73790914D02*
X89122054Y-73981390D01*
X89122054Y-73981390D02*
X89122054Y-74124247D01*
X89122054Y-74124247D02*
X89169673Y-74314723D01*
X89169673Y-74314723D02*
X89217292Y-74409961D01*
X89217292Y-74409961D02*
X89312530Y-74505200D01*
X89312530Y-74505200D02*
X89455387Y-74552819D01*
X89455387Y-74552819D02*
X89550625Y-74552819D01*
X89550625Y-74552819D02*
X89693482Y-74505200D01*
X89693482Y-74505200D02*
X89741101Y-74457580D01*
X89741101Y-74457580D02*
X89741101Y-74124247D01*
X89741101Y-74124247D02*
X89550625Y-74124247D01*
X90169673Y-74552819D02*
X90169673Y-73552819D01*
X90169673Y-73552819D02*
X90741101Y-74552819D01*
X90741101Y-74552819D02*
X90741101Y-73552819D01*
X91217292Y-74552819D02*
X91217292Y-73552819D01*
X91217292Y-73552819D02*
X91455387Y-73552819D01*
X91455387Y-73552819D02*
X91598244Y-73600438D01*
X91598244Y-73600438D02*
X91693482Y-73695676D01*
X91693482Y-73695676D02*
X91741101Y-73790914D01*
X91741101Y-73790914D02*
X91788720Y-73981390D01*
X91788720Y-73981390D02*
X91788720Y-74124247D01*
X91788720Y-74124247D02*
X91741101Y-74314723D01*
X91741101Y-74314723D02*
X91693482Y-74409961D01*
X91693482Y-74409961D02*
X91598244Y-74505200D01*
X91598244Y-74505200D02*
X91455387Y-74552819D01*
X91455387Y-74552819D02*
X91217292Y-74552819D01*
X89169673Y-76886266D02*
X89931578Y-76886266D01*
X89550625Y-77267219D02*
X89550625Y-76505314D01*
X90264911Y-76267219D02*
X90598244Y-77267219D01*
X90598244Y-77267219D02*
X90931577Y-76267219D01*
X91264911Y-76743409D02*
X91598244Y-76743409D01*
X91741101Y-77267219D02*
X91264911Y-77267219D01*
X91264911Y-77267219D02*
X91264911Y-76267219D01*
X91264911Y-76267219D02*
X91741101Y-76267219D01*
D12*
X54500828Y-73859774D02*
X56000828Y-73359774D01*
X56000828Y-73359774D02*
X54500828Y-72859774D01*
X56143685Y-72716918D02*
X56143685Y-71574060D01*
X56000828Y-71216918D02*
X54500828Y-71216918D01*
X56000828Y-70502632D02*
X54500828Y-70502632D01*
X54500828Y-70502632D02*
X56000828Y-69645489D01*
X56000828Y-69645489D02*
X54500828Y-69645489D01*
D10*
X156950933Y-99862819D02*
X156617600Y-99386628D01*
X156379505Y-99862819D02*
X156379505Y-98862819D01*
X156379505Y-98862819D02*
X156760457Y-98862819D01*
X156760457Y-98862819D02*
X156855695Y-98910438D01*
X156855695Y-98910438D02*
X156903314Y-98958057D01*
X156903314Y-98958057D02*
X156950933Y-99053295D01*
X156950933Y-99053295D02*
X156950933Y-99196152D01*
X156950933Y-99196152D02*
X156903314Y-99291390D01*
X156903314Y-99291390D02*
X156855695Y-99339009D01*
X156855695Y-99339009D02*
X156760457Y-99386628D01*
X156760457Y-99386628D02*
X156379505Y-99386628D01*
X157331886Y-98958057D02*
X157379505Y-98910438D01*
X157379505Y-98910438D02*
X157474743Y-98862819D01*
X157474743Y-98862819D02*
X157712838Y-98862819D01*
X157712838Y-98862819D02*
X157808076Y-98910438D01*
X157808076Y-98910438D02*
X157855695Y-98958057D01*
X157855695Y-98958057D02*
X157903314Y-99053295D01*
X157903314Y-99053295D02*
X157903314Y-99148533D01*
X157903314Y-99148533D02*
X157855695Y-99291390D01*
X157855695Y-99291390D02*
X157284267Y-99862819D01*
X157284267Y-99862819D02*
X157903314Y-99862819D01*
X145620505Y-101793219D02*
X145620505Y-100793219D01*
X145620505Y-100793219D02*
X145858600Y-100793219D01*
X145858600Y-100793219D02*
X146001457Y-100840838D01*
X146001457Y-100840838D02*
X146096695Y-100936076D01*
X146096695Y-100936076D02*
X146144314Y-101031314D01*
X146144314Y-101031314D02*
X146191933Y-101221790D01*
X146191933Y-101221790D02*
X146191933Y-101364647D01*
X146191933Y-101364647D02*
X146144314Y-101555123D01*
X146144314Y-101555123D02*
X146096695Y-101650361D01*
X146096695Y-101650361D02*
X146001457Y-101745600D01*
X146001457Y-101745600D02*
X145858600Y-101793219D01*
X145858600Y-101793219D02*
X145620505Y-101793219D01*
X146572886Y-100888457D02*
X146620505Y-100840838D01*
X146620505Y-100840838D02*
X146715743Y-100793219D01*
X146715743Y-100793219D02*
X146953838Y-100793219D01*
X146953838Y-100793219D02*
X147049076Y-100840838D01*
X147049076Y-100840838D02*
X147096695Y-100888457D01*
X147096695Y-100888457D02*
X147144314Y-100983695D01*
X147144314Y-100983695D02*
X147144314Y-101078933D01*
X147144314Y-101078933D02*
X147096695Y-101221790D01*
X147096695Y-101221790D02*
X146525267Y-101793219D01*
X146525267Y-101793219D02*
X147144314Y-101793219D01*
X149174800Y-98964419D02*
X149174800Y-99202514D01*
X148936705Y-99107276D02*
X149174800Y-99202514D01*
X149174800Y-99202514D02*
X149412895Y-99107276D01*
X149031943Y-99392990D02*
X149174800Y-99202514D01*
X149174800Y-99202514D02*
X149317657Y-99392990D01*
X149174799Y-100054780D02*
X149174799Y-99816685D01*
X149412894Y-99911923D02*
X149174799Y-99816685D01*
X149174799Y-99816685D02*
X148936704Y-99911923D01*
X149317656Y-99626209D02*
X149174799Y-99816685D01*
X149174799Y-99816685D02*
X149031942Y-99626209D01*
X135434666Y-92624419D02*
X135434666Y-93338704D01*
X135434666Y-93338704D02*
X135387047Y-93481561D01*
X135387047Y-93481561D02*
X135291809Y-93576800D01*
X135291809Y-93576800D02*
X135148952Y-93624419D01*
X135148952Y-93624419D02*
X135053714Y-93624419D01*
X136434666Y-93624419D02*
X135863238Y-93624419D01*
X136148952Y-93624419D02*
X136148952Y-92624419D01*
X136148952Y-92624419D02*
X136053714Y-92767276D01*
X136053714Y-92767276D02*
X135958476Y-92862514D01*
X135958476Y-92862514D02*
X135863238Y-92910133D01*
X149819180Y-94276266D02*
X149866800Y-94323885D01*
X149866800Y-94323885D02*
X149914419Y-94466742D01*
X149914419Y-94466742D02*
X149914419Y-94561980D01*
X149914419Y-94561980D02*
X149866800Y-94704837D01*
X149866800Y-94704837D02*
X149771561Y-94800075D01*
X149771561Y-94800075D02*
X149676323Y-94847694D01*
X149676323Y-94847694D02*
X149485847Y-94895313D01*
X149485847Y-94895313D02*
X149342990Y-94895313D01*
X149342990Y-94895313D02*
X149152514Y-94847694D01*
X149152514Y-94847694D02*
X149057276Y-94800075D01*
X149057276Y-94800075D02*
X148962038Y-94704837D01*
X148962038Y-94704837D02*
X148914419Y-94561980D01*
X148914419Y-94561980D02*
X148914419Y-94466742D01*
X148914419Y-94466742D02*
X148962038Y-94323885D01*
X148962038Y-94323885D02*
X149009657Y-94276266D01*
X149914419Y-93323885D02*
X149914419Y-93895313D01*
X149914419Y-93609599D02*
X148914419Y-93609599D01*
X148914419Y-93609599D02*
X149057276Y-93704837D01*
X149057276Y-93704837D02*
X149152514Y-93800075D01*
X149152514Y-93800075D02*
X149200133Y-93895313D01*
X156524780Y-94393066D02*
X156572400Y-94440685D01*
X156572400Y-94440685D02*
X156620019Y-94583542D01*
X156620019Y-94583542D02*
X156620019Y-94678780D01*
X156620019Y-94678780D02*
X156572400Y-94821637D01*
X156572400Y-94821637D02*
X156477161Y-94916875D01*
X156477161Y-94916875D02*
X156381923Y-94964494D01*
X156381923Y-94964494D02*
X156191447Y-95012113D01*
X156191447Y-95012113D02*
X156048590Y-95012113D01*
X156048590Y-95012113D02*
X155858114Y-94964494D01*
X155858114Y-94964494D02*
X155762876Y-94916875D01*
X155762876Y-94916875D02*
X155667638Y-94821637D01*
X155667638Y-94821637D02*
X155620019Y-94678780D01*
X155620019Y-94678780D02*
X155620019Y-94583542D01*
X155620019Y-94583542D02*
X155667638Y-94440685D01*
X155667638Y-94440685D02*
X155715257Y-94393066D01*
X155953352Y-93535923D02*
X156620019Y-93535923D01*
X155572400Y-93774018D02*
X156286685Y-94012113D01*
X156286685Y-94012113D02*
X156286685Y-93393066D01*
X146691810Y-88824419D02*
X147025143Y-89824419D01*
X147025143Y-89824419D02*
X147358476Y-88824419D01*
X147453715Y-89919657D02*
X148215619Y-89919657D01*
X148453715Y-89824419D02*
X148453715Y-88824419D01*
X148929905Y-89824419D02*
X148929905Y-88824419D01*
X148929905Y-88824419D02*
X149501333Y-89824419D01*
X149501333Y-89824419D02*
X149501333Y-88824419D01*
X147706095Y-87424419D02*
X148277523Y-87424419D01*
X147991809Y-88424419D02*
X147991809Y-87424419D01*
X148610857Y-88424419D02*
X148610857Y-87424419D01*
X148610857Y-87424419D02*
X148991809Y-87424419D01*
X148991809Y-87424419D02*
X149087047Y-87472038D01*
X149087047Y-87472038D02*
X149134666Y-87519657D01*
X149134666Y-87519657D02*
X149182285Y-87614895D01*
X149182285Y-87614895D02*
X149182285Y-87757752D01*
X149182285Y-87757752D02*
X149134666Y-87852990D01*
X149134666Y-87852990D02*
X149087047Y-87900609D01*
X149087047Y-87900609D02*
X148991809Y-87948228D01*
X148991809Y-87948228D02*
X148610857Y-87948228D01*
X150134666Y-88424419D02*
X149563238Y-88424419D01*
X149848952Y-88424419D02*
X149848952Y-87424419D01*
X149848952Y-87424419D02*
X149753714Y-87567276D01*
X149753714Y-87567276D02*
X149658476Y-87662514D01*
X149658476Y-87662514D02*
X149563238Y-87710133D01*
X144754261Y-94319257D02*
X144659023Y-94271638D01*
X144659023Y-94271638D02*
X144563785Y-94176400D01*
X144563785Y-94176400D02*
X144420928Y-94033542D01*
X144420928Y-94033542D02*
X144325690Y-93985923D01*
X144325690Y-93985923D02*
X144230452Y-93985923D01*
X144278071Y-94224019D02*
X144182833Y-94176400D01*
X144182833Y-94176400D02*
X144087595Y-94081161D01*
X144087595Y-94081161D02*
X144039976Y-93890685D01*
X144039976Y-93890685D02*
X144039976Y-93557352D01*
X144039976Y-93557352D02*
X144087595Y-93366876D01*
X144087595Y-93366876D02*
X144182833Y-93271638D01*
X144182833Y-93271638D02*
X144278071Y-93224019D01*
X144278071Y-93224019D02*
X144468547Y-93224019D01*
X144468547Y-93224019D02*
X144563785Y-93271638D01*
X144563785Y-93271638D02*
X144659023Y-93366876D01*
X144659023Y-93366876D02*
X144706642Y-93557352D01*
X144706642Y-93557352D02*
X144706642Y-93890685D01*
X144706642Y-93890685D02*
X144659023Y-94081161D01*
X144659023Y-94081161D02*
X144563785Y-94176400D01*
X144563785Y-94176400D02*
X144468547Y-94224019D01*
X144468547Y-94224019D02*
X144278071Y-94224019D01*
X145659023Y-94224019D02*
X145087595Y-94224019D01*
X145373309Y-94224019D02*
X145373309Y-93224019D01*
X145373309Y-93224019D02*
X145278071Y-93366876D01*
X145278071Y-93366876D02*
X145182833Y-93462114D01*
X145182833Y-93462114D02*
X145087595Y-93509733D01*
D13*
X155723018Y-102623918D02*
X155723018Y-101353918D01*
X155723018Y-101353918D02*
X156025399Y-101353918D01*
X156025399Y-101353918D02*
X156206828Y-101414394D01*
X156206828Y-101414394D02*
X156327780Y-101535346D01*
X156327780Y-101535346D02*
X156388257Y-101656299D01*
X156388257Y-101656299D02*
X156448733Y-101898203D01*
X156448733Y-101898203D02*
X156448733Y-102079632D01*
X156448733Y-102079632D02*
X156388257Y-102321537D01*
X156388257Y-102321537D02*
X156327780Y-102442489D01*
X156327780Y-102442489D02*
X156206828Y-102563442D01*
X156206828Y-102563442D02*
X156025399Y-102623918D01*
X156025399Y-102623918D02*
X155723018Y-102623918D01*
X156872066Y-101353918D02*
X157658257Y-101353918D01*
X157658257Y-101353918D02*
X157234923Y-101837727D01*
X157234923Y-101837727D02*
X157416352Y-101837727D01*
X157416352Y-101837727D02*
X157537304Y-101898203D01*
X157537304Y-101898203D02*
X157597780Y-101958680D01*
X157597780Y-101958680D02*
X157658257Y-102079632D01*
X157658257Y-102079632D02*
X157658257Y-102382013D01*
X157658257Y-102382013D02*
X157597780Y-102502965D01*
X157597780Y-102502965D02*
X157537304Y-102563442D01*
X157537304Y-102563442D02*
X157416352Y-102623918D01*
X157416352Y-102623918D02*
X157053495Y-102623918D01*
X157053495Y-102623918D02*
X156932542Y-102563442D01*
X156932542Y-102563442D02*
X156872066Y-102502965D01*
D10*
X142828533Y-103317219D02*
X142495200Y-102841028D01*
X142257105Y-103317219D02*
X142257105Y-102317219D01*
X142257105Y-102317219D02*
X142638057Y-102317219D01*
X142638057Y-102317219D02*
X142733295Y-102364838D01*
X142733295Y-102364838D02*
X142780914Y-102412457D01*
X142780914Y-102412457D02*
X142828533Y-102507695D01*
X142828533Y-102507695D02*
X142828533Y-102650552D01*
X142828533Y-102650552D02*
X142780914Y-102745790D01*
X142780914Y-102745790D02*
X142733295Y-102793409D01*
X142733295Y-102793409D02*
X142638057Y-102841028D01*
X142638057Y-102841028D02*
X142257105Y-102841028D01*
X143780914Y-103317219D02*
X143209486Y-103317219D01*
X143495200Y-103317219D02*
X143495200Y-102317219D01*
X143495200Y-102317219D02*
X143399962Y-102460076D01*
X143399962Y-102460076D02*
X143304724Y-102555314D01*
X143304724Y-102555314D02*
X143209486Y-102602933D01*
X159203943Y-89224419D02*
X159537276Y-90224419D01*
X159537276Y-90224419D02*
X159870609Y-89224419D01*
X159965848Y-90319657D02*
X160727752Y-90319657D01*
X161156324Y-89224419D02*
X161346800Y-89224419D01*
X161346800Y-89224419D02*
X161442038Y-89272038D01*
X161442038Y-89272038D02*
X161537276Y-89367276D01*
X161537276Y-89367276D02*
X161584895Y-89557752D01*
X161584895Y-89557752D02*
X161584895Y-89891085D01*
X161584895Y-89891085D02*
X161537276Y-90081561D01*
X161537276Y-90081561D02*
X161442038Y-90176800D01*
X161442038Y-90176800D02*
X161346800Y-90224419D01*
X161346800Y-90224419D02*
X161156324Y-90224419D01*
X161156324Y-90224419D02*
X161061086Y-90176800D01*
X161061086Y-90176800D02*
X160965848Y-90081561D01*
X160965848Y-90081561D02*
X160918229Y-89891085D01*
X160918229Y-89891085D02*
X160918229Y-89557752D01*
X160918229Y-89557752D02*
X160965848Y-89367276D01*
X160965848Y-89367276D02*
X161061086Y-89272038D01*
X161061086Y-89272038D02*
X161156324Y-89224419D01*
X162013467Y-89224419D02*
X162013467Y-90033942D01*
X162013467Y-90033942D02*
X162061086Y-90129180D01*
X162061086Y-90129180D02*
X162108705Y-90176800D01*
X162108705Y-90176800D02*
X162203943Y-90224419D01*
X162203943Y-90224419D02*
X162394419Y-90224419D01*
X162394419Y-90224419D02*
X162489657Y-90176800D01*
X162489657Y-90176800D02*
X162537276Y-90129180D01*
X162537276Y-90129180D02*
X162584895Y-90033942D01*
X162584895Y-90033942D02*
X162584895Y-89224419D01*
X162918229Y-89224419D02*
X163489657Y-89224419D01*
X163203943Y-90224419D02*
X163203943Y-89224419D01*
X159506095Y-87424419D02*
X160077523Y-87424419D01*
X159791809Y-88424419D02*
X159791809Y-87424419D01*
X160410857Y-88424419D02*
X160410857Y-87424419D01*
X160410857Y-87424419D02*
X160791809Y-87424419D01*
X160791809Y-87424419D02*
X160887047Y-87472038D01*
X160887047Y-87472038D02*
X160934666Y-87519657D01*
X160934666Y-87519657D02*
X160982285Y-87614895D01*
X160982285Y-87614895D02*
X160982285Y-87757752D01*
X160982285Y-87757752D02*
X160934666Y-87852990D01*
X160934666Y-87852990D02*
X160887047Y-87900609D01*
X160887047Y-87900609D02*
X160791809Y-87948228D01*
X160791809Y-87948228D02*
X160410857Y-87948228D01*
X161363238Y-87519657D02*
X161410857Y-87472038D01*
X161410857Y-87472038D02*
X161506095Y-87424419D01*
X161506095Y-87424419D02*
X161744190Y-87424419D01*
X161744190Y-87424419D02*
X161839428Y-87472038D01*
X161839428Y-87472038D02*
X161887047Y-87519657D01*
X161887047Y-87519657D02*
X161934666Y-87614895D01*
X161934666Y-87614895D02*
X161934666Y-87710133D01*
X161934666Y-87710133D02*
X161887047Y-87852990D01*
X161887047Y-87852990D02*
X161315619Y-88424419D01*
X161315619Y-88424419D02*
X161934666Y-88424419D01*
X158759980Y-94139066D02*
X158807600Y-94186685D01*
X158807600Y-94186685D02*
X158855219Y-94329542D01*
X158855219Y-94329542D02*
X158855219Y-94424780D01*
X158855219Y-94424780D02*
X158807600Y-94567637D01*
X158807600Y-94567637D02*
X158712361Y-94662875D01*
X158712361Y-94662875D02*
X158617123Y-94710494D01*
X158617123Y-94710494D02*
X158426647Y-94758113D01*
X158426647Y-94758113D02*
X158283790Y-94758113D01*
X158283790Y-94758113D02*
X158093314Y-94710494D01*
X158093314Y-94710494D02*
X157998076Y-94662875D01*
X157998076Y-94662875D02*
X157902838Y-94567637D01*
X157902838Y-94567637D02*
X157855219Y-94424780D01*
X157855219Y-94424780D02*
X157855219Y-94329542D01*
X157855219Y-94329542D02*
X157902838Y-94186685D01*
X157902838Y-94186685D02*
X157950457Y-94139066D01*
X157855219Y-93805732D02*
X157855219Y-93186685D01*
X157855219Y-93186685D02*
X158236171Y-93520018D01*
X158236171Y-93520018D02*
X158236171Y-93377161D01*
X158236171Y-93377161D02*
X158283790Y-93281923D01*
X158283790Y-93281923D02*
X158331409Y-93234304D01*
X158331409Y-93234304D02*
X158426647Y-93186685D01*
X158426647Y-93186685D02*
X158664742Y-93186685D01*
X158664742Y-93186685D02*
X158759980Y-93234304D01*
X158759980Y-93234304D02*
X158807600Y-93281923D01*
X158807600Y-93281923D02*
X158855219Y-93377161D01*
X158855219Y-93377161D02*
X158855219Y-93662875D01*
X158855219Y-93662875D02*
X158807600Y-93758113D01*
X158807600Y-93758113D02*
X158759980Y-93805732D01*
D13*
X166041467Y-99118718D02*
X166041467Y-100025861D01*
X166041467Y-100025861D02*
X165980990Y-100207289D01*
X165980990Y-100207289D02*
X165860038Y-100328242D01*
X165860038Y-100328242D02*
X165678609Y-100388718D01*
X165678609Y-100388718D02*
X165557657Y-100388718D01*
X166585752Y-99239670D02*
X166646228Y-99179194D01*
X166646228Y-99179194D02*
X166767181Y-99118718D01*
X166767181Y-99118718D02*
X167069562Y-99118718D01*
X167069562Y-99118718D02*
X167190514Y-99179194D01*
X167190514Y-99179194D02*
X167250990Y-99239670D01*
X167250990Y-99239670D02*
X167311467Y-99360622D01*
X167311467Y-99360622D02*
X167311467Y-99481575D01*
X167311467Y-99481575D02*
X167250990Y-99663003D01*
X167250990Y-99663003D02*
X166525276Y-100388718D01*
X166525276Y-100388718D02*
X167311467Y-100388718D01*
D10*
X153396095Y-94384419D02*
X153396095Y-95193942D01*
X153396095Y-95193942D02*
X153443714Y-95289180D01*
X153443714Y-95289180D02*
X153491333Y-95336800D01*
X153491333Y-95336800D02*
X153586571Y-95384419D01*
X153586571Y-95384419D02*
X153777047Y-95384419D01*
X153777047Y-95384419D02*
X153872285Y-95336800D01*
X153872285Y-95336800D02*
X153919904Y-95289180D01*
X153919904Y-95289180D02*
X153967523Y-95193942D01*
X153967523Y-95193942D02*
X153967523Y-94384419D01*
X154967523Y-95384419D02*
X154396095Y-95384419D01*
X154681809Y-95384419D02*
X154681809Y-94384419D01*
X154681809Y-94384419D02*
X154586571Y-94527276D01*
X154586571Y-94527276D02*
X154491333Y-94622514D01*
X154491333Y-94622514D02*
X154396095Y-94670133D01*
X151546380Y-94113066D02*
X151594000Y-94160685D01*
X151594000Y-94160685D02*
X151641619Y-94303542D01*
X151641619Y-94303542D02*
X151641619Y-94398780D01*
X151641619Y-94398780D02*
X151594000Y-94541637D01*
X151594000Y-94541637D02*
X151498761Y-94636875D01*
X151498761Y-94636875D02*
X151403523Y-94684494D01*
X151403523Y-94684494D02*
X151213047Y-94732113D01*
X151213047Y-94732113D02*
X151070190Y-94732113D01*
X151070190Y-94732113D02*
X150879714Y-94684494D01*
X150879714Y-94684494D02*
X150784476Y-94636875D01*
X150784476Y-94636875D02*
X150689238Y-94541637D01*
X150689238Y-94541637D02*
X150641619Y-94398780D01*
X150641619Y-94398780D02*
X150641619Y-94303542D01*
X150641619Y-94303542D02*
X150689238Y-94160685D01*
X150689238Y-94160685D02*
X150736857Y-94113066D01*
X150736857Y-93732113D02*
X150689238Y-93684494D01*
X150689238Y-93684494D02*
X150641619Y-93589256D01*
X150641619Y-93589256D02*
X150641619Y-93351161D01*
X150641619Y-93351161D02*
X150689238Y-93255923D01*
X150689238Y-93255923D02*
X150736857Y-93208304D01*
X150736857Y-93208304D02*
X150832095Y-93160685D01*
X150832095Y-93160685D02*
X150927333Y-93160685D01*
X150927333Y-93160685D02*
X151070190Y-93208304D01*
X151070190Y-93208304D02*
X151641619Y-93779732D01*
X151641619Y-93779732D02*
X151641619Y-93160685D01*
D14*
X138927067Y-90127233D02*
X138503733Y-90127233D01*
X138503733Y-90792471D02*
X138503733Y-89522471D01*
X138503733Y-89522471D02*
X139108495Y-89522471D01*
X140257543Y-90792471D02*
X139531828Y-90792471D01*
X139894685Y-90792471D02*
X139894685Y-89522471D01*
X139894685Y-89522471D02*
X139773733Y-89703899D01*
X139773733Y-89703899D02*
X139652781Y-89824852D01*
X139652781Y-89824852D02*
X139531828Y-89885328D01*
D11*
X154006095Y-89269438D02*
X153910857Y-89221819D01*
X153910857Y-89221819D02*
X153768000Y-89221819D01*
X153768000Y-89221819D02*
X153625143Y-89269438D01*
X153625143Y-89269438D02*
X153529905Y-89364676D01*
X153529905Y-89364676D02*
X153482286Y-89459914D01*
X153482286Y-89459914D02*
X153434667Y-89650390D01*
X153434667Y-89650390D02*
X153434667Y-89793247D01*
X153434667Y-89793247D02*
X153482286Y-89983723D01*
X153482286Y-89983723D02*
X153529905Y-90078961D01*
X153529905Y-90078961D02*
X153625143Y-90174200D01*
X153625143Y-90174200D02*
X153768000Y-90221819D01*
X153768000Y-90221819D02*
X153863238Y-90221819D01*
X153863238Y-90221819D02*
X154006095Y-90174200D01*
X154006095Y-90174200D02*
X154053714Y-90126580D01*
X154053714Y-90126580D02*
X154053714Y-89793247D01*
X154053714Y-89793247D02*
X153863238Y-89793247D01*
X154482286Y-90221819D02*
X154482286Y-89221819D01*
X154482286Y-89221819D02*
X155053714Y-90221819D01*
X155053714Y-90221819D02*
X155053714Y-89221819D01*
X155529905Y-90221819D02*
X155529905Y-89221819D01*
X155529905Y-89221819D02*
X155768000Y-89221819D01*
X155768000Y-89221819D02*
X155910857Y-89269438D01*
X155910857Y-89269438D02*
X156006095Y-89364676D01*
X156006095Y-89364676D02*
X156053714Y-89459914D01*
X156053714Y-89459914D02*
X156101333Y-89650390D01*
X156101333Y-89650390D02*
X156101333Y-89793247D01*
X156101333Y-89793247D02*
X156053714Y-89983723D01*
X156053714Y-89983723D02*
X156006095Y-90078961D01*
X156006095Y-90078961D02*
X155910857Y-90174200D01*
X155910857Y-90174200D02*
X155768000Y-90221819D01*
X155768000Y-90221819D02*
X155529905Y-90221819D01*
D10*
X153706095Y-87424419D02*
X154277523Y-87424419D01*
X153991809Y-88424419D02*
X153991809Y-87424419D01*
X154610857Y-88424419D02*
X154610857Y-87424419D01*
X154610857Y-87424419D02*
X154991809Y-87424419D01*
X154991809Y-87424419D02*
X155087047Y-87472038D01*
X155087047Y-87472038D02*
X155134666Y-87519657D01*
X155134666Y-87519657D02*
X155182285Y-87614895D01*
X155182285Y-87614895D02*
X155182285Y-87757752D01*
X155182285Y-87757752D02*
X155134666Y-87852990D01*
X155134666Y-87852990D02*
X155087047Y-87900609D01*
X155087047Y-87900609D02*
X154991809Y-87948228D01*
X154991809Y-87948228D02*
X154610857Y-87948228D01*
X155515619Y-87424419D02*
X156134666Y-87424419D01*
X156134666Y-87424419D02*
X155801333Y-87805371D01*
X155801333Y-87805371D02*
X155944190Y-87805371D01*
X155944190Y-87805371D02*
X156039428Y-87852990D01*
X156039428Y-87852990D02*
X156087047Y-87900609D01*
X156087047Y-87900609D02*
X156134666Y-87995847D01*
X156134666Y-87995847D02*
X156134666Y-88233942D01*
X156134666Y-88233942D02*
X156087047Y-88329180D01*
X156087047Y-88329180D02*
X156039428Y-88376800D01*
X156039428Y-88376800D02*
X155944190Y-88424419D01*
X155944190Y-88424419D02*
X155658476Y-88424419D01*
X155658476Y-88424419D02*
X155563238Y-88376800D01*
X155563238Y-88376800D02*
X155515619Y-88329180D01*
%TO.C,R2*%
D15*
X159280742Y-99241100D02*
X159755258Y-99241100D01*
X159280742Y-100286100D02*
X159755258Y-100286100D01*
%TO.C,D2*%
D16*
X144961200Y-100311600D02*
X148065200Y-100311600D01*
X148065200Y-98707600D02*
X144961200Y-98707600D01*
%TO.C,D1*%
D15*
X140342000Y-93662800D02*
X140342000Y-99172800D01*
X143642000Y-93662800D02*
X140342000Y-93662800D01*
X143642000Y-93662800D02*
X143642000Y-99172800D01*
%TO.C,J1*%
D17*
X134913600Y-94579200D02*
X139413600Y-94579200D01*
X134913600Y-100479200D02*
X134913600Y-94579200D01*
X139413600Y-94579200D02*
X139413600Y-100479200D01*
X139413600Y-100479200D02*
X134913600Y-100479200D01*
D11*
X140213600Y-96529200D02*
G75*
G02*
X140013600Y-96529200I-100000J0D01*
G01*
X140013600Y-96529200D02*
G75*
G02*
X140213600Y-96529200I100000J0D01*
G01*
%TO.C,C1*%
D15*
X148775400Y-96555948D02*
X148775400Y-97078452D01*
X150245400Y-96555948D02*
X150245400Y-97078452D01*
%TO.C,C4*%
X155909200Y-97059380D02*
X155909200Y-96778220D01*
X156929200Y-97059380D02*
X156929200Y-96778220D01*
%TO.C,TP1*%
X148733200Y-91381600D02*
G75*
G02*
X146833200Y-91381600I-950000J0D01*
G01*
X146833200Y-91381600D02*
G75*
G02*
X148733200Y-91381600I950000J0D01*
G01*
%TO.C,Q1*%
D16*
X144036700Y-95636100D02*
X144036700Y-97287100D01*
X145050160Y-95636100D02*
X144036700Y-95636100D01*
X145359441Y-97287100D02*
X145965159Y-97287100D01*
X147287900Y-95636100D02*
X146274440Y-95636100D01*
X147287900Y-97287100D02*
X147287900Y-95636100D01*
X143020700Y-97706200D02*
G75*
G02*
X142766700Y-97706200I-127000J0D01*
G01*
X142766700Y-97706200D02*
G75*
G02*
X143020700Y-97706200I127000J0D01*
G01*
%TO.C,D3*%
D11*
X157968800Y-100716600D02*
X157968800Y-102366600D01*
X157968800Y-102366600D02*
X160368800Y-102366600D01*
X160368800Y-100716600D02*
X157968800Y-100716600D01*
%TO.C,R1*%
D15*
X144161900Y-101901742D02*
X144161900Y-102376258D01*
X145206900Y-101901742D02*
X145206900Y-102376258D01*
%TO.C,TP2*%
X162296800Y-91635600D02*
G75*
G02*
X160396800Y-91635600I-950000J0D01*
G01*
X160396800Y-91635600D02*
G75*
G02*
X162296800Y-91635600I950000J0D01*
G01*
%TO.C,C3*%
X157614600Y-97078452D02*
X157614600Y-96555948D01*
X159084600Y-97078452D02*
X159084600Y-96555948D01*
%TO.C,J2*%
D11*
X159923200Y-93585200D02*
X159923200Y-98515200D01*
X159923200Y-98515200D02*
X163023200Y-98515200D01*
X166273200Y-93585200D02*
X159923200Y-93585200D01*
X166273200Y-97325200D02*
X166273200Y-93585200D01*
%TO.C,U1*%
D10*
X154866401Y-95743801D02*
X152866399Y-95743801D01*
X154866401Y-98093799D02*
X152866399Y-98093799D01*
D18*
X155491401Y-98918800D02*
G75*
G02*
X155241399Y-98918800I-125001J0D01*
G01*
X155241399Y-98918800D02*
G75*
G02*
X155491401Y-98918800I125001J0D01*
G01*
%TO.C,C2*%
D15*
X150829200Y-96765220D02*
X150829200Y-97046380D01*
X151849200Y-96765220D02*
X151849200Y-97046380D01*
%TO.C,F1*%
D11*
X139401200Y-91596000D02*
X139401200Y-92996000D01*
%TO.C,TP3*%
D15*
X155718000Y-91569600D02*
G75*
G02*
X153818000Y-91569600I-950000J0D01*
G01*
X153818000Y-91569600D02*
G75*
G02*
X155718000Y-91569600I950000J0D01*
G01*
%TD*%
M02*
