%TF.GenerationSoftware,KiCad,Pcbnew,10.0.3*%
%TF.CreationDate,2026-06-09T21:51:01+05:30*%
%TF.ProjectId,LiIon_3V3_500mA_Regulator,4c69496f-6e5f-4335-9633-5f3530306d41,REv 1.0*%
%TF.SameCoordinates,Original*%
%TF.FileFunction,Soldermask,Top*%
%TF.FilePolarity,Negative*%
%FSLAX46Y46*%
G04 Gerber Fmt 4.6, Leading zero omitted, Abs format (unit mm)*
G04 Created by KiCad (PCBNEW 10.0.3) date 2026-06-09 21:51:01*
%MOMM*%
%LPD*%
G01*
G04 APERTURE LIST*
G04 Aperture macros list*
%AMRoundRect*
0 Rectangle with rounded corners*
0 $1 Rounding radius*
0 $2 $3 $4 $5 $6 $7 $8 $9 X,Y pos of 4 corners*
0 Add a 4 corners polygon primitive as box body*
4,1,4,$2,$3,$4,$5,$6,$7,$8,$9,$2,$3,0*
0 Add four circle primitives for the rounded corners*
1,1,$1+$1,$2,$3*
1,1,$1+$1,$4,$5*
1,1,$1+$1,$6,$7*
1,1,$1+$1,$8,$9*
0 Add four rect primitives between the rounded corners*
20,1,$1+$1,$2,$3,$4,$5,0*
20,1,$1+$1,$4,$5,$6,$7,0*
20,1,$1+$1,$6,$7,$8,$9,0*
20,1,$1+$1,$8,$9,$2,$3,0*%
G04 Aperture macros list end*
%ADD10RoundRect,0.200000X-0.200000X-0.275000X0.200000X-0.275000X0.200000X0.275000X-0.200000X0.275000X0*%
%ADD11R,1.111200X0.600800*%
%ADD12RoundRect,0.250000X-0.650000X1.000000X-0.650000X-1.000000X0.650000X-1.000000X0.650000X1.000000X0*%
%ADD13RoundRect,0.102000X0.654000X-0.654000X0.654000X0.654000X-0.654000X0.654000X-0.654000X-0.654000X0*%
%ADD14C,1.512000*%
%ADD15RoundRect,0.250000X-0.475000X0.250000X-0.475000X-0.250000X0.475000X-0.250000X0.475000X0.250000X0*%
%ADD16RoundRect,0.225000X0.250000X-0.225000X0.250000X0.225000X-0.250000X0.225000X-0.250000X-0.225000X0*%
%ADD17C,1.500000*%
%ADD18R,0.558800X1.320800*%
%ADD19R,0.900000X0.950000*%
%ADD20RoundRect,0.200000X-0.275000X0.200000X-0.275000X-0.200000X0.275000X-0.200000X0.275000X0.200000X0*%
%ADD21RoundRect,0.250000X0.475000X-0.250000X0.475000X0.250000X-0.475000X0.250000X-0.475000X-0.250000X0*%
%ADD22R,1.575000X1.575000*%
%ADD23C,1.575000*%
%ADD24R,0.756067X0.292473*%
%ADD25R,1.100000X1.699999*%
%ADD26RoundRect,0.225000X-0.250000X0.225000X-0.250000X-0.225000X0.250000X-0.225000X0.250000X0.225000X0*%
%ADD27R,0.820000X1.820000*%
G04 APERTURE END LIST*
D10*
%TO.C,R2*%
X158693000Y-99763600D03*
X160343000Y-99763600D03*
%TD*%
D11*
%TO.C,D2*%
X148238200Y-99509600D03*
X144788200Y-99509600D03*
%TD*%
D12*
%TO.C,D1*%
X141992000Y-95172800D03*
X141992000Y-99172800D03*
%TD*%
D13*
%TO.C,J1*%
X137713600Y-96529200D03*
D14*
X137713600Y-98529200D03*
%TD*%
D15*
%TO.C,C1*%
X149510400Y-95867200D03*
X149510400Y-97767200D03*
%TD*%
D16*
%TO.C,C4*%
X156419200Y-97693800D03*
X156419200Y-96143800D03*
%TD*%
D17*
%TO.C,TP1*%
X147783200Y-91381600D03*
%TD*%
D18*
%TO.C,Q1*%
X144747301Y-97401400D03*
X146577299Y-97401400D03*
X145662300Y-95521800D03*
%TD*%
D19*
%TO.C,D3*%
X158768800Y-101541600D03*
X160368800Y-101541600D03*
%TD*%
D20*
%TO.C,R1*%
X144684400Y-101314000D03*
X144684400Y-102964000D03*
%TD*%
D17*
%TO.C,TP2*%
X161346800Y-91635600D03*
%TD*%
D21*
%TO.C,C3*%
X158349600Y-97767200D03*
X158349600Y-95867200D03*
%TD*%
D22*
%TO.C,J2*%
X163023200Y-97325200D03*
D23*
X163023200Y-94785200D03*
%TD*%
D24*
%TO.C,U1*%
X154944432Y-97568801D03*
X154944432Y-96918800D03*
X154944432Y-96268799D03*
X152788368Y-96268799D03*
X152788368Y-96918800D03*
X152788368Y-97568801D03*
D25*
X153866400Y-96918800D03*
%TD*%
D26*
%TO.C,C2*%
X151339200Y-96130800D03*
X151339200Y-97680800D03*
%TD*%
D27*
%TO.C,F1*%
X137751200Y-92296000D03*
X141051200Y-92296000D03*
%TD*%
D17*
%TO.C,TP3*%
X154768000Y-91569600D03*
%TD*%
M02*
