M48
; DRILL file KiCad 10.0.3 date 2026-06-09T21:51:18
; FORMAT={-:-/ absolute / metric / decimal}
; #@! TF.CreationDate,2026-06-09T21:51:18+05:30
; #@! TF.GenerationSoftware,Kicad,Pcbnew,10.0.3
; #@! TF.FileFunction,MixedPlating,1,2
FMAT,2
METRIC
; #@! TA.AperFunction,Plated,PTH,ViaDrill
T1C0.400
; #@! TA.AperFunction,Plated,PTH,ComponentDrill
T2C0.700
; #@! TA.AperFunction,Plated,PTH,ComponentDrill
T3C0.800
; #@! TA.AperFunction,Plated,PTH,ViaDrill
T4C1.000
; #@! TA.AperFunction,Plated,PTH,ComponentDrill
T5C1.050
%
G90
G05
T1
X135.347Y-104.437
X135.463Y-88.029
X135.594Y-101.44
X135.645Y-102.456
X136.594Y-101.44
X136.645Y-102.456
X137.594Y-101.44
X137.645Y-102.456
X138.347Y-104.437
X138.463Y-88.029
X138.594Y-101.44
X138.645Y-102.456
X139.594Y-101.44
X139.645Y-102.456
X141.347Y-104.437
X141.463Y-88.029
X144.347Y-104.437
X144.463Y-88.029
X144.518Y-92.52
X144.518Y-93.52
X145.518Y-92.52
X145.518Y-93.52
X146.518Y-92.52
X146.518Y-93.52
X147.347Y-104.437
X147.463Y-88.029
X150.368Y-104.37
X150.463Y-88.029
X150.768Y-99.17
X150.768Y-100.17
X151.768Y-99.17
X151.768Y-100.17
X152.768Y-94.67
X152.768Y-99.17
X152.768Y-100.17
X153.347Y-104.437
X153.463Y-88.029
X153.768Y-99.17
X153.768Y-100.17
X154.768Y-99.17
X154.768Y-100.17
X155.768Y-99.17
X155.768Y-100.17
X156.347Y-104.437
X156.463Y-88.029
X158.758Y-102.71
X159.347Y-104.437
X159.463Y-88.029
X161.348Y-97.325
X161.839Y-99.408
X161.839Y-100.475
X162.347Y-104.437
X162.463Y-88.029
X162.839Y-99.408
X162.839Y-100.475
X163.379Y-91.483
X163.43Y-92.55
X163.839Y-99.408
X163.839Y-100.475
X164.379Y-91.483
X164.43Y-92.55
X164.839Y-99.408
X164.839Y-100.475
X165.347Y-104.437
X165.379Y-91.483
X165.43Y-92.55
X165.463Y-88.029
T2
X147.783Y-91.382
X154.768Y-91.57
X161.347Y-91.636
T3
X137.714Y-96.529
X137.714Y-98.529
T4
X132.463Y-88.029
X132.784Y-104.361
X168.347Y-104.437
X168.463Y-88.029
T5
X163.023Y-94.785
X163.023Y-97.325
M30
